%
M48
M72
T01C0.0315
T02C0.0320
T03C0.0400
%
T01
X3720Y845
X5871Y6657
X7720Y7720
X8220Y8470
X7345Y8595
X5845Y8095
X7345Y9845
X5220Y10095
X10595Y8970
X10970Y9720
X12470Y9345
X15345Y10345
X11970Y12220
X11220Y14095
X15319Y16500
X13595Y16704
X12595Y16704
X11595Y16704
X10595Y16704
X9595Y16704
X8595Y16704
X7595Y16704
X5871Y16500
X7720Y23220
X11595Y23220
X3720Y23470
X30970Y21720
X33220Y19470
X36595Y21095
X32845Y16220
X46220Y22095
X46470Y23470
X32845Y7345
X32845Y5720
X32845Y1220
X46470Y845
X15319Y6657
T02
X4745Y7595
X3945Y7595
X4720Y10970
X4720Y11970
X6220Y12645
X4720Y13470
X4720Y14470
X6220Y14545
X6095Y18345
X5095Y18345
X5095Y19345
X6095Y19345
X7095Y19345
X8095Y19345
X9095Y19345
X10095Y19345
X11095Y19345
X12095Y19345
X13095Y19345
X14095Y19345
X15095Y19345
X16095Y19345
X16095Y18345
X15095Y18345
X14095Y18345
X13095Y18345
X12095Y18345
X11095Y18345
X10095Y18345
X9095Y18345
X8095Y18345
X7095Y18345
X7095Y20345
X6095Y20345
X5095Y20345
X6470Y21220
X6470Y22220
X7720Y22345
X8720Y22345
X10345Y22220
X11595Y22345
X12595Y22345
X14220Y22220
X15470Y22345
X16470Y22345
X14220Y23220
X14220Y21220
X14095Y20345
X13095Y20345
X12095Y20345
X11095Y20345
X10095Y20345
X9095Y20345
X8095Y20345
X10345Y21220
X10345Y23220
X6470Y23220
X15095Y20345
X16095Y20345
X20549Y21556
X20549Y22359
X20549Y23162
X22352Y23162
X22352Y22359
X22352Y21556
X23720Y21945
X23720Y22745
X32970Y22845
X36970Y22845
X37970Y22470
X38970Y22470
X42937Y21753
X43503Y21187
X44220Y20970
X46220Y20970
T03
X45556Y20126
X42996Y20126
X42017Y20516
X40237Y20516
X39257Y20126
X36697Y20126
X35717Y20516
X33937Y20516
X31780Y20516
X30000Y20516
X29021Y20126
X26461Y20126
X25481Y20516
X23701Y20516
X22721Y20126
X20161Y20126
X19182Y20516
X17402Y20516
X18970Y21845
X18970Y22845
X20161Y18346
X19182Y17956
X19572Y16976
X20551Y17366
X22331Y17366
X23311Y16976
X23701Y17956
X22721Y18346
X25481Y17956
X26461Y18346
X26851Y17366
X25871Y16976
X28631Y17366
X29610Y16976
X30000Y17956
X29021Y18346
X31780Y17956
X32170Y16976
X33547Y16976
X33937Y17956
X35717Y17956
X36697Y18346
X37087Y17366
X36107Y16976
X38867Y17366
X39847Y16976
X40237Y17956
X39257Y18346
X42017Y17956
X42996Y18346
X43386Y17366
X42407Y16976
X45166Y17366
X45556Y18346
X42407Y15196
X43386Y14806
X42017Y14217
X42996Y13827
X45166Y14806
X45556Y13827
X45556Y12047
X45166Y11067
X43386Y11067
X42407Y10677
X42017Y11657
X42996Y12047
X40237Y11657
X39257Y12047
X38867Y11067
X39847Y10677
X37087Y11067
X36107Y10677
X35717Y11657
X36697Y12047
X33937Y11657
X33547Y10677
X32170Y10677
X31780Y11657
X30000Y11657
X29021Y12047
X28631Y11067
X29610Y10677
X26851Y11067
X25871Y10677
X25481Y11657
X26461Y12047
X23701Y11657
X22721Y12047
X22331Y11067
X23311Y10677
X20551Y11067
X19572Y10677
X19182Y11657
X20161Y12047
X17402Y11657
X17012Y10677
X17012Y8897
X17402Y7917
X19182Y7917
X20161Y7527
X20551Y8507
X19572Y8897
X22331Y8507
X23311Y8897
X23701Y7917
X22721Y7527
X25481Y7917
X26461Y7527
X26851Y8507
X25871Y8897
X28631Y8507
X29610Y8897
X30000Y7917
X29021Y7527
X31780Y7917
X32170Y8897
X33547Y8897
X33937Y7917
X35717Y7917
X36697Y7527
X37087Y8507
X36107Y8897
X38867Y8507
X39847Y8897
X40237Y7917
X39257Y7527
X42017Y7917
X43386Y8507
X42407Y8897
X45166Y8507
X45166Y6343
X43386Y6343
X42017Y5357
X43386Y4768
X42407Y4378
X43386Y3783
X42407Y2598
X43386Y2208
X45166Y2208
X45166Y3783
X45166Y4768
X40237Y5357
X39257Y5747
X38867Y4768
X39847Y4378
X37087Y4768
X36107Y4378
X35717Y5357
X36697Y5747
X33937Y5357
X33547Y4378
X32170Y4378
X31780Y5357
X30000Y5357
X29021Y5747
X28631Y4768
X29610Y4378
X26851Y4768
X25871Y4378
X25481Y5357
X26461Y5747
X23701Y5357
X22721Y5747
X22331Y4768
X23311Y4378
X20551Y4768
X19572Y4378
X19182Y5357
X20161Y5747
X17402Y5357
X16032Y4768
X17012Y4378
X14252Y4768
X12883Y4768
X11103Y4768
X9733Y4768
X7953Y4768
X6583Y4768
X4803Y4768
X6595Y5845
X8845Y7220
X9845Y7220
X10845Y7220
X11845Y7220
X6595Y7345
X5720Y9220
X12970Y12845
X13970Y12845
X13970Y13845
X12970Y13845
X12970Y14845
X13970Y14845
X17012Y15196
X17402Y14217
X19182Y14217
X20161Y13827
X20551Y14806
X19572Y15196
X22331Y14806
X23311Y15196
X23701Y14217
X22721Y13827
X25481Y14217
X26461Y13827
X26851Y14806
X25871Y15196
X28631Y14806
X29610Y15196
X30000Y14217
X29021Y13827
X31780Y14217
X32170Y15196
X33547Y15196
X33937Y14217
X35717Y14217
X36697Y13827
X37087Y14806
X36107Y15196
X38867Y14806
X39847Y15196
X40237Y14217
X39257Y13827
X39847Y2598
X38867Y2208
X37087Y2208
X36107Y2598
X33547Y2598
X32170Y2598
X29610Y2598
X28631Y2208
X26851Y2208
X25871Y2598
X23311Y2598
X22331Y2208
X20551Y2208
X19572Y2598
X17012Y2598
X16032Y2208
X14252Y2208
X12883Y2208
X11103Y2208
X9733Y2208
X7953Y2208
X6583Y2208
X4803Y2208
X8720Y15595
X17012Y16976
X17402Y17956
M30
