G75*
G70*
%OFA0B0*%
%FSLAX24Y24*%
%IPPOS*%
%LPD*%
%AMOC8*
5,1,8,0,0,1.08239X$1,22.5*
%
%ADD10R,0.0715X0.0715*%
%ADD11C,0.0630*%
%ADD12C,0.0635*%
%ADD13OC8,0.0635*%
%ADD14C,0.0715*%
%ADD15OC8,0.0715*%
%ADD16R,0.0635X0.0635*%
%ADD17C,0.0127*%
%ADD18C,0.0715*%
%ADD19C,0.0635*%
%ADD20R,0.0591X0.0512*%
%ADD21OC8,0.0760*%
%ADD22C,0.0160*%
%ADD23C,0.0240*%
%ADD24C,0.0700*%
%ADD25C,0.0120*%
%ADD26R,0.0760X0.0760*%
D10*
X004406Y002208D03*
X006186Y002208D03*
X007556Y002208D03*
X009336Y002208D03*
X010706Y002208D03*
X012486Y002208D03*
X013855Y002208D03*
X015635Y002208D03*
X016615Y002598D03*
X019175Y002598D03*
X020154Y002208D03*
X021934Y002208D03*
X022914Y002598D03*
X025474Y002598D03*
X026454Y002208D03*
X028234Y002208D03*
X029213Y002598D03*
X031773Y002598D03*
X033150Y002598D03*
X035710Y002598D03*
X036690Y002208D03*
X038470Y002208D03*
X039449Y002598D03*
X042009Y002598D03*
X042989Y002208D03*
X044769Y002208D03*
X044769Y003783D03*
X044769Y004768D03*
X042989Y004768D03*
X042009Y004378D03*
X042989Y003783D03*
X041619Y005357D03*
X042989Y006343D03*
X044769Y006343D03*
X041619Y007917D03*
X042989Y008507D03*
X042009Y008897D03*
X039839Y007917D03*
X038860Y007527D03*
X038470Y008507D03*
X039449Y008897D03*
X036690Y008507D03*
X035710Y008897D03*
X035320Y007917D03*
X036300Y007527D03*
X033540Y007917D03*
X033150Y008897D03*
X031773Y008897D03*
X031383Y007917D03*
X029603Y007917D03*
X028624Y007527D03*
X028234Y008507D03*
X029213Y008897D03*
X026454Y008507D03*
X025474Y008897D03*
X025084Y007917D03*
X026064Y007527D03*
X023304Y007917D03*
X022324Y007527D03*
X021934Y008507D03*
X022914Y008897D03*
X020154Y008507D03*
X019175Y008897D03*
X018785Y007917D03*
X019764Y007527D03*
X017005Y007917D03*
X016615Y008897D03*
X016615Y010677D03*
X017005Y011657D03*
X018785Y011657D03*
X019764Y012047D03*
X020154Y011067D03*
X019175Y010677D03*
X021934Y011067D03*
X022914Y010677D03*
X023304Y011657D03*
X022324Y012047D03*
X025084Y011657D03*
X026064Y012047D03*
X026454Y011067D03*
X025474Y010677D03*
X028234Y011067D03*
X029213Y010677D03*
X029603Y011657D03*
X028624Y012047D03*
X031383Y011657D03*
X031773Y010677D03*
X033150Y010677D03*
X033540Y011657D03*
X035320Y011657D03*
X036300Y012047D03*
X036690Y011067D03*
X035710Y010677D03*
X038470Y011067D03*
X039449Y010677D03*
X039839Y011657D03*
X038860Y012047D03*
X041619Y011657D03*
X042599Y012047D03*
X042989Y011067D03*
X042009Y010677D03*
X044769Y011067D03*
X045159Y012047D03*
X045159Y013827D03*
X044769Y014806D03*
X042989Y014806D03*
X042009Y015196D03*
X041619Y014217D03*
X042599Y013827D03*
X039839Y014217D03*
X038860Y013827D03*
X038470Y014806D03*
X039449Y015196D03*
X036690Y014806D03*
X035710Y015196D03*
X035320Y014217D03*
X036300Y013827D03*
X033540Y014217D03*
X033150Y015196D03*
X031773Y015196D03*
X031383Y014217D03*
X029603Y014217D03*
X028624Y013827D03*
X028234Y014806D03*
X029213Y015196D03*
X026454Y014806D03*
X025474Y015196D03*
X025084Y014217D03*
X026064Y013827D03*
X023304Y014217D03*
X022324Y013827D03*
X021934Y014806D03*
X022914Y015196D03*
X020154Y014806D03*
X019175Y015196D03*
X018785Y014217D03*
X019764Y013827D03*
X017005Y014217D03*
X016615Y015196D03*
X016615Y016976D03*
X017005Y017956D03*
X018785Y017956D03*
X019764Y018346D03*
X020154Y017366D03*
X019175Y016976D03*
X021934Y017366D03*
X022914Y016976D03*
X023304Y017956D03*
X022324Y018346D03*
X025084Y017956D03*
X026064Y018346D03*
X026454Y017366D03*
X025474Y016976D03*
X028234Y017366D03*
X029213Y016976D03*
X029603Y017956D03*
X028624Y018346D03*
X031383Y017956D03*
X031773Y016976D03*
X033150Y016976D03*
X033540Y017956D03*
X035320Y017956D03*
X036300Y018346D03*
X036690Y017366D03*
X035710Y016976D03*
X038470Y017366D03*
X039449Y016976D03*
X039839Y017956D03*
X038860Y018346D03*
X041619Y017956D03*
X042599Y018346D03*
X042989Y017366D03*
X042009Y016976D03*
X044769Y017366D03*
X045159Y018346D03*
X045159Y020126D03*
X042599Y020126D03*
X041619Y020516D03*
X039839Y020516D03*
X038860Y020126D03*
X036300Y020126D03*
X035320Y020516D03*
X033540Y020516D03*
X031383Y020516D03*
X029603Y020516D03*
X028624Y020126D03*
X026064Y020126D03*
X025084Y020516D03*
X023304Y020516D03*
X022324Y020126D03*
X019764Y020126D03*
X018785Y020516D03*
X017005Y020516D03*
X011448Y007220D03*
X010448Y007220D03*
X009448Y007220D03*
X008448Y007220D03*
X009336Y004768D03*
X010706Y004768D03*
X012486Y004768D03*
X013855Y004768D03*
X015635Y004768D03*
X016615Y004378D03*
X017005Y005357D03*
X018785Y005357D03*
X019764Y005747D03*
X020154Y004768D03*
X019175Y004378D03*
X021934Y004768D03*
X022914Y004378D03*
X023304Y005357D03*
X022324Y005747D03*
X025084Y005357D03*
X026064Y005747D03*
X026454Y004768D03*
X025474Y004378D03*
X028234Y004768D03*
X029213Y004378D03*
X029603Y005357D03*
X028624Y005747D03*
X031383Y005357D03*
X031773Y004378D03*
X033150Y004378D03*
X033540Y005357D03*
X035320Y005357D03*
X036300Y005747D03*
X036690Y004768D03*
X035710Y004378D03*
X038470Y004768D03*
X038860Y005747D03*
X039839Y005357D03*
X039449Y004378D03*
X044769Y008507D03*
X007556Y004768D03*
X006186Y004768D03*
X004406Y004768D03*
D11*
X005474Y006657D03*
X014922Y006657D03*
X014922Y016500D03*
X013198Y016704D03*
X012198Y016704D03*
X011198Y016704D03*
X010198Y016704D03*
X009198Y016704D03*
X008198Y016704D03*
X007198Y016704D03*
X005474Y016500D03*
D12*
X005823Y014545D03*
X005823Y012645D03*
X004348Y007595D03*
X023323Y022745D03*
X043106Y021187D03*
D13*
X043823Y020970D03*
X045823Y020970D03*
X038573Y022470D03*
X037573Y022470D03*
X036573Y022845D03*
X032573Y022845D03*
X023323Y021945D03*
X004323Y014470D03*
X004323Y013470D03*
X004323Y011970D03*
X004323Y010970D03*
X003548Y007595D03*
D14*
X012573Y014845D03*
D15*
X013573Y014845D03*
X013573Y013845D03*
X012573Y013845D03*
X012573Y012845D03*
X013573Y012845D03*
X008323Y015595D03*
X007323Y014095D03*
X005323Y009220D03*
X006198Y007345D03*
X006198Y005845D03*
D16*
X006698Y018345D03*
X007698Y018345D03*
X008698Y018345D03*
X009698Y018345D03*
X010698Y018345D03*
X011698Y018345D03*
X012698Y018345D03*
X013698Y018345D03*
X014698Y018345D03*
X015698Y018345D03*
X015698Y019345D03*
X014698Y019345D03*
X013698Y019345D03*
X012698Y019345D03*
X011698Y019345D03*
X010698Y019345D03*
X009698Y019345D03*
X008698Y019345D03*
X007698Y019345D03*
X006698Y019345D03*
X005698Y019345D03*
X004698Y019345D03*
X004698Y018345D03*
X005698Y018345D03*
X005698Y020345D03*
X006698Y020345D03*
X007698Y020345D03*
X008698Y020345D03*
X009698Y020345D03*
X010698Y020345D03*
X011698Y020345D03*
X012698Y020345D03*
X013698Y020345D03*
X014698Y020345D03*
X015698Y020345D03*
X004698Y020345D03*
D17*
X042499Y021942D02*
X042435Y022006D01*
X042645Y022006D01*
X042793Y021858D01*
X042793Y021648D01*
X042645Y021500D01*
X042435Y021500D01*
X042287Y021648D01*
X042287Y021858D01*
X042435Y022006D01*
X042474Y021911D01*
X042606Y021911D01*
X042698Y021819D01*
X042698Y021687D01*
X042606Y021595D01*
X042474Y021595D01*
X042382Y021687D01*
X042382Y021819D01*
X042474Y021911D01*
X042514Y021815D01*
X042566Y021815D01*
X042602Y021779D01*
X042602Y021727D01*
X042566Y021691D01*
X042514Y021691D01*
X042478Y021727D01*
X042478Y021779D01*
X042514Y021815D01*
D18*
X018930Y021845D02*
X018215Y021845D01*
X018215Y022845D02*
X018930Y022845D01*
D19*
X019834Y023162D02*
X020469Y023162D01*
X020469Y022359D02*
X019834Y022359D01*
X019834Y021556D02*
X020469Y021556D01*
X021637Y021556D02*
X022272Y021556D01*
X022272Y022359D02*
X021637Y022359D01*
X021637Y023162D02*
X022272Y023162D01*
X014140Y023220D02*
X013505Y023220D01*
X013505Y022220D02*
X014140Y022220D01*
X014140Y021220D02*
X013505Y021220D01*
X010265Y021220D02*
X009630Y021220D01*
X009630Y022220D02*
X010265Y022220D01*
X010265Y023220D02*
X009630Y023220D01*
X006390Y023220D02*
X005755Y023220D01*
X005755Y022220D02*
X006390Y022220D01*
X006390Y021220D02*
X005755Y021220D01*
D20*
X007573Y006719D03*
X007573Y005971D03*
D21*
X007323Y022345D03*
X008323Y022345D03*
X011198Y022345D03*
X012198Y022345D03*
X015073Y022345D03*
X016073Y022345D03*
D22*
X012698Y018345D02*
X012698Y017095D01*
X011698Y017095D02*
X011698Y018345D01*
X010698Y018345D02*
X010698Y017095D01*
X011198Y016704D02*
X011198Y015720D01*
X010823Y015345D01*
X010823Y014095D01*
X010323Y014720D02*
X010323Y015470D01*
X010698Y015845D01*
X010698Y016220D01*
X011698Y016220D02*
X011698Y015595D01*
X012698Y016095D02*
X012698Y016220D01*
X010323Y014720D02*
X009698Y014095D01*
X009698Y009470D01*
X010198Y008970D01*
X008573Y009970D02*
X008573Y014720D01*
X008948Y015095D01*
X008948Y016095D01*
X008698Y016345D01*
X008698Y018345D01*
X009698Y018345D02*
X009698Y017095D01*
X009698Y016220D02*
X009698Y014845D01*
X009198Y014345D01*
X009198Y010095D01*
X007948Y009970D02*
X007948Y014720D01*
X007323Y015095D02*
X007323Y015970D01*
X006339Y015845D02*
X005323Y015845D01*
X004823Y015345D01*
X004823Y013720D01*
X004573Y013470D01*
X004323Y013470D01*
X007948Y009970D02*
X007198Y009220D01*
X006448Y009220D01*
X012073Y009345D02*
X012573Y009595D01*
X015073Y009595D01*
X015573Y010095D01*
X015573Y010970D01*
X014948Y011595D01*
X015948Y007720D02*
X015948Y016470D01*
X016609Y016970D02*
X016615Y016976D01*
X024073Y016195D02*
X024073Y013720D01*
X024448Y013345D02*
X024448Y015470D01*
X025198Y016220D01*
X033448Y009720D02*
X033698Y009970D01*
X039823Y009970D01*
X040198Y010345D01*
X040198Y011298D01*
X039839Y011657D01*
X040698Y010095D02*
X040198Y009595D01*
X035198Y009595D01*
X035198Y009575D01*
X033540Y007917D01*
X031698Y006845D02*
X025448Y006845D01*
X021948Y006470D02*
X030698Y006470D01*
X029603Y007917D02*
X030198Y008512D01*
X030198Y008720D01*
X031198Y009720D01*
X033448Y009720D01*
X016615Y004378D02*
X016323Y005095D01*
X016323Y007345D01*
X015948Y007720D01*
D23*
X003323Y000220D02*
X002698Y000220D01*
X002698Y000845D01*
X007556Y002208D02*
X007556Y004768D01*
X007573Y005971D02*
X007072Y005971D01*
X006198Y006845D01*
X006198Y007345D01*
X006073Y007595D01*
X006073Y008095D01*
X005448Y008095D01*
X006073Y008095D02*
X006073Y008845D01*
X006448Y009220D01*
X006948Y009845D02*
X007323Y010220D01*
X007323Y012845D01*
X006573Y013595D01*
X006573Y014345D01*
X007323Y015095D01*
X006339Y015845D02*
X007198Y016704D01*
X004698Y017095D02*
X003573Y015970D01*
X003573Y010470D01*
X003948Y010095D01*
X004823Y010095D01*
X007323Y007720D02*
X009323Y008095D01*
X010323Y008095D01*
X011323Y009095D01*
X011323Y010845D01*
X012573Y012095D01*
X012573Y012845D01*
X013573Y012845D02*
X013573Y011720D01*
X014948Y010345D01*
X016615Y010677D02*
X019175Y010677D01*
X019998Y009720D02*
X026573Y009720D01*
X027323Y010470D01*
X027323Y011970D01*
X028073Y012720D01*
X032477Y012720D01*
X033540Y011657D01*
X035320Y011657D02*
X035320Y014217D01*
X036300Y012047D02*
X038860Y012047D01*
X040698Y012220D02*
X041448Y012970D01*
X041743Y012970D01*
X042599Y013827D01*
X045159Y013827D01*
X045159Y012047D02*
X042599Y012047D01*
X040698Y012220D02*
X040698Y010095D01*
X038860Y007527D02*
X036300Y007527D01*
X035577Y006470D02*
X036300Y005747D01*
X035577Y006470D02*
X032073Y006470D01*
X031698Y006845D01*
X030698Y006470D02*
X031383Y005785D01*
X031383Y005357D01*
X031773Y004378D02*
X032681Y003470D01*
X040323Y003470D01*
X040823Y002970D01*
X040823Y002220D01*
X041698Y001345D01*
X043906Y001345D01*
X044769Y002208D01*
X046698Y000970D02*
X046698Y000220D01*
X045948Y000220D01*
X042009Y004378D02*
X039449Y004378D01*
X032448Y001220D02*
X011693Y001220D01*
X010706Y002208D01*
X010706Y004768D01*
X009699Y005971D02*
X010448Y006720D01*
X010448Y007220D01*
X010448Y007470D01*
X012073Y009095D01*
X012073Y009345D01*
X010573Y009720D02*
X010573Y012595D01*
X011448Y013470D01*
X013573Y014845D02*
X014198Y014845D01*
X014948Y014095D01*
X014948Y011595D01*
X016615Y008897D02*
X019175Y008897D01*
X019998Y009720D01*
X021448Y008020D02*
X021934Y008507D01*
X021448Y008020D02*
X021448Y006970D01*
X021948Y006470D01*
X022324Y005747D02*
X019764Y005747D01*
X018785Y005357D02*
X018785Y007917D01*
X022914Y008897D02*
X025474Y008897D01*
X027323Y009095D02*
X027323Y007845D01*
X027005Y007527D01*
X026064Y007527D01*
X025448Y006845D02*
X025198Y007095D01*
X023948Y007095D01*
X023304Y007739D01*
X023304Y007917D01*
X026064Y005747D02*
X028624Y005747D01*
X028234Y004768D02*
X028234Y002208D01*
X029213Y002598D02*
X031773Y002598D01*
X026454Y002208D02*
X026454Y004768D01*
X025474Y004378D02*
X022914Y004378D01*
X021934Y004768D02*
X021934Y002208D01*
X020154Y002208D02*
X020154Y004768D01*
X013855Y004768D02*
X013855Y002208D01*
X012486Y002208D02*
X012486Y004768D01*
X009699Y005971D02*
X007573Y005971D01*
X007573Y006719D02*
X008448Y007220D01*
X019764Y013827D02*
X022324Y013827D01*
X021823Y012970D02*
X023323Y012970D01*
X024073Y013720D01*
X024448Y013345D02*
X024448Y012800D01*
X023304Y011657D01*
X021934Y011067D02*
X021448Y011553D01*
X021448Y012595D01*
X021823Y012970D01*
X025084Y014217D02*
X025084Y011657D01*
X025474Y010677D02*
X022914Y010677D01*
X027323Y009095D02*
X028073Y009845D01*
X029948Y009845D01*
X030573Y010470D01*
X030573Y010846D01*
X031383Y011657D01*
X029948Y013220D02*
X029230Y013220D01*
X028624Y013827D01*
X029948Y013220D02*
X030573Y013845D01*
X030573Y018595D01*
X029948Y019220D01*
X029529Y019220D01*
X028624Y020126D01*
X031383Y020516D02*
X031383Y017956D01*
X030073Y017486D02*
X029603Y017956D01*
X030073Y017486D02*
X030073Y016595D01*
X029698Y016220D01*
X025198Y016220D01*
X024073Y016195D02*
X024073Y016945D01*
X025084Y017956D01*
X026064Y018346D02*
X028624Y018346D01*
X032448Y019095D02*
X032448Y016095D01*
X033150Y016976D02*
X035710Y016976D01*
X033540Y017956D02*
X033540Y020516D01*
X032448Y021345D02*
X035698Y021345D01*
X036198Y021095D01*
X032823Y019470D02*
X032448Y019095D01*
X036300Y018346D02*
X038860Y018346D01*
X032448Y021345D02*
X032073Y021720D01*
X030573Y021720D01*
X023304Y020516D02*
X023304Y017956D01*
X022324Y018346D02*
X019764Y018346D01*
X021934Y017366D02*
X021934Y014806D01*
X019175Y015196D02*
X016615Y015196D01*
X015948Y016470D02*
X016448Y016970D01*
X016609Y016970D01*
X016615Y016976D02*
X019175Y016976D01*
X016323Y017970D02*
X015948Y017470D01*
X014448Y017470D01*
X014073Y017095D01*
X014073Y015970D01*
X013573Y015470D01*
X013573Y014845D01*
X016323Y017970D02*
X016323Y019970D01*
X015948Y020345D01*
X015698Y020345D01*
X004698Y018345D02*
X004698Y017095D01*
X002698Y023095D02*
X002698Y024095D01*
X003698Y024095D01*
X045698Y024095D02*
X046698Y024095D01*
X046698Y023220D01*
D24*
X045823Y022095D03*
X036198Y021095D03*
X032823Y019470D03*
X030573Y021720D03*
X032448Y016095D03*
X032448Y007345D03*
X032448Y005720D03*
X032448Y001220D03*
X014948Y010345D03*
X012073Y009345D03*
X010573Y009720D03*
X010198Y008970D03*
X007823Y008470D03*
X006948Y008595D03*
X005448Y008095D03*
X007323Y007720D03*
X006948Y009845D03*
X004823Y010095D03*
X011573Y012220D03*
X010823Y014095D03*
X011198Y023220D03*
X007323Y023220D03*
D25*
X007698Y018345D02*
X007698Y016470D01*
X007323Y015970D01*
X007698Y015970D02*
X007698Y014970D01*
X007948Y014720D01*
X007698Y015970D02*
X008182Y016704D01*
X008198Y016704D01*
X009698Y017095D02*
X009698Y016220D01*
X010698Y016220D02*
X010698Y017095D01*
X011698Y017095D02*
X011698Y016220D01*
X011698Y015595D02*
X011448Y015345D01*
X011448Y013470D01*
X011823Y012845D02*
X011823Y015220D01*
X012698Y016095D01*
X012698Y016220D02*
X012698Y017095D01*
X011823Y012845D02*
X011573Y012220D01*
X009198Y010095D02*
X007823Y008470D01*
X007573Y008970D02*
X008573Y009970D01*
X007573Y008970D02*
X006948Y008595D01*
D26*
X003323Y000845D03*
X003323Y023470D03*
X046073Y023470D03*
X046073Y000845D03*
M02*
