G75*
G70*
%OFA0B0*%
%FSLAX24Y24*%
%IPPOS*%
%LPD*%
%AMOC8*
5,1,8,0,0,1.08239X$1,22.5*
%
%ADD10R,0.0580X0.0300*%
%ADD11R,0.0300X0.0580*%
%ADD12R,0.0795X0.0795*%
%ADD13C,0.0710*%
%ADD14C,0.0715*%
%ADD15OC8,0.0715*%
%ADD16R,0.0671X0.0592*%
%ADD17C,0.0795*%
%ADD18OC8,0.0795*%
%ADD19R,0.0592X0.0671*%
%ADD20R,0.0715X0.0715*%
%ADD21R,0.0789X0.0710*%
%ADD22R,0.0946X0.0316*%
%ADD23R,0.0867X0.0710*%
%ADD24R,0.0710X0.0867*%
%ADD25R,0.0592X0.0710*%
%ADD26R,0.0710X0.0592*%
%ADD27R,0.1025X0.1025*%
%ADD28C,0.0143*%
%ADD29R,0.0710X0.0789*%
%ADD30C,0.0795*%
%ADD31C,0.0715*%
%ADD32OC8,0.0840*%
%ADD33R,0.0552X0.0789*%
%ADD34C,0.0780*%
%ADD35R,0.0840X0.0840*%
D10*
X007489Y010473D03*
X007489Y010788D03*
X007489Y011103D03*
X007489Y011418D03*
X007489Y011733D03*
X007489Y012048D03*
X007489Y012363D03*
X007489Y012678D03*
X010869Y012678D03*
X010869Y012363D03*
X010869Y012048D03*
X010869Y011733D03*
X010869Y011418D03*
X010869Y011103D03*
X010869Y010788D03*
X010869Y010473D03*
D11*
X010281Y009885D03*
X009966Y009885D03*
X009651Y009885D03*
X009336Y009885D03*
X009021Y009885D03*
X008706Y009885D03*
X008391Y009885D03*
X008076Y009885D03*
X008076Y013265D03*
X008391Y013265D03*
X008706Y013265D03*
X009021Y013265D03*
X009336Y013265D03*
X009651Y013265D03*
X009966Y013265D03*
X010281Y013265D03*
D12*
X017012Y015196D03*
X017402Y014217D03*
X019182Y014217D03*
X020161Y013827D03*
X020551Y014806D03*
X019572Y015196D03*
X022331Y014806D03*
X023311Y015196D03*
X023701Y014217D03*
X022721Y013827D03*
X025481Y014217D03*
X026461Y013827D03*
X026851Y014806D03*
X025871Y015196D03*
X028631Y014806D03*
X029610Y015196D03*
X030000Y014217D03*
X029021Y013827D03*
X031780Y014217D03*
X032170Y015196D03*
X033547Y015196D03*
X033937Y014217D03*
X035717Y014217D03*
X036697Y013827D03*
X037087Y014806D03*
X036107Y015196D03*
X038867Y014806D03*
X039847Y015196D03*
X040237Y014217D03*
X039257Y013827D03*
X042017Y014217D03*
X042996Y013827D03*
X043386Y014806D03*
X042407Y015196D03*
X045166Y014806D03*
X045556Y013827D03*
X045556Y012047D03*
X045166Y011067D03*
X043386Y011067D03*
X042407Y010677D03*
X042017Y011657D03*
X042996Y012047D03*
X040237Y011657D03*
X039257Y012047D03*
X038867Y011067D03*
X039847Y010677D03*
X037087Y011067D03*
X036107Y010677D03*
X035717Y011657D03*
X036697Y012047D03*
X033937Y011657D03*
X033547Y010677D03*
X032170Y010677D03*
X031780Y011657D03*
X030000Y011657D03*
X029021Y012047D03*
X028631Y011067D03*
X029610Y010677D03*
X026851Y011067D03*
X025871Y010677D03*
X025481Y011657D03*
X026461Y012047D03*
X023701Y011657D03*
X022721Y012047D03*
X022331Y011067D03*
X023311Y010677D03*
X020551Y011067D03*
X019572Y010677D03*
X019182Y011657D03*
X020161Y012047D03*
X017402Y011657D03*
X017012Y010677D03*
X017012Y008897D03*
X017402Y007917D03*
X019182Y007917D03*
X020161Y007527D03*
X020551Y008507D03*
X019572Y008897D03*
X022331Y008507D03*
X023311Y008897D03*
X023701Y007917D03*
X022721Y007527D03*
X025481Y007917D03*
X026461Y007527D03*
X026851Y008507D03*
X025871Y008897D03*
X028631Y008507D03*
X029610Y008897D03*
X030000Y007917D03*
X029021Y007527D03*
X031780Y007917D03*
X032170Y008897D03*
X033547Y008897D03*
X033937Y007917D03*
X035717Y007917D03*
X036697Y007527D03*
X037087Y008507D03*
X036107Y008897D03*
X038867Y008507D03*
X039847Y008897D03*
X040237Y007917D03*
X039257Y007527D03*
X042017Y007917D03*
X043386Y008507D03*
X042407Y008897D03*
X045166Y008507D03*
X045166Y006343D03*
X043386Y006343D03*
X042017Y005357D03*
X043386Y004768D03*
X042407Y004378D03*
X043386Y003783D03*
X042407Y002598D03*
X043386Y002208D03*
X045166Y002208D03*
X045166Y003783D03*
X045166Y004768D03*
X040237Y005357D03*
X039257Y005747D03*
X038867Y004768D03*
X039847Y004378D03*
X037087Y004768D03*
X036107Y004378D03*
X035717Y005357D03*
X036697Y005747D03*
X033937Y005357D03*
X033547Y004378D03*
X032170Y004378D03*
X031780Y005357D03*
X030000Y005357D03*
X029021Y005747D03*
X028631Y004768D03*
X029610Y004378D03*
X026851Y004768D03*
X025871Y004378D03*
X025481Y005357D03*
X026461Y005747D03*
X023701Y005357D03*
X022721Y005747D03*
X022331Y004768D03*
X023311Y004378D03*
X020551Y004768D03*
X019572Y004378D03*
X019182Y005357D03*
X020161Y005747D03*
X017402Y005357D03*
X016032Y004768D03*
X017012Y004378D03*
X014252Y004768D03*
X012883Y004768D03*
X011103Y004768D03*
X009733Y004768D03*
X007953Y004768D03*
X006583Y004768D03*
X004803Y004768D03*
X004803Y002208D03*
X006583Y002208D03*
X007953Y002208D03*
X009733Y002208D03*
X011103Y002208D03*
X012883Y002208D03*
X014252Y002208D03*
X016032Y002208D03*
X017012Y002598D03*
X019572Y002598D03*
X020551Y002208D03*
X022331Y002208D03*
X023311Y002598D03*
X025871Y002598D03*
X026851Y002208D03*
X028631Y002208D03*
X029610Y002598D03*
X032170Y002598D03*
X033547Y002598D03*
X036107Y002598D03*
X037087Y002208D03*
X038867Y002208D03*
X039847Y002598D03*
X039847Y016976D03*
X038867Y017366D03*
X040237Y017956D03*
X039257Y018346D03*
X037087Y017366D03*
X036107Y016976D03*
X035717Y017956D03*
X036697Y018346D03*
X033937Y017956D03*
X033547Y016976D03*
X032170Y016976D03*
X031780Y017956D03*
X030000Y017956D03*
X029021Y018346D03*
X028631Y017366D03*
X029610Y016976D03*
X026851Y017366D03*
X025871Y016976D03*
X025481Y017956D03*
X026461Y018346D03*
X023701Y017956D03*
X022721Y018346D03*
X022331Y017366D03*
X023311Y016976D03*
X020551Y017366D03*
X019572Y016976D03*
X019182Y017956D03*
X020161Y018346D03*
X017402Y017956D03*
X017012Y016976D03*
X020161Y020126D03*
X019182Y020516D03*
X017402Y020516D03*
X022721Y020126D03*
X023701Y020516D03*
X025481Y020516D03*
X026461Y020126D03*
X029021Y020126D03*
X030000Y020516D03*
X031780Y020516D03*
X033937Y020516D03*
X035717Y020516D03*
X036697Y020126D03*
X039257Y020126D03*
X040237Y020516D03*
X042017Y020516D03*
X042996Y020126D03*
X045556Y020126D03*
X045556Y018346D03*
X045166Y017366D03*
X043386Y017366D03*
X042407Y016976D03*
X042017Y017956D03*
X042996Y018346D03*
X011845Y007220D03*
X010845Y007220D03*
X009845Y007220D03*
X008845Y007220D03*
D13*
X005871Y006657D03*
X015319Y006657D03*
X015319Y016500D03*
X013595Y016704D03*
X012595Y016704D03*
X011595Y016704D03*
X010595Y016704D03*
X009595Y016704D03*
X008595Y016704D03*
X007595Y016704D03*
X005871Y016500D03*
D14*
X006220Y014545D03*
X006220Y012645D03*
X004745Y007595D03*
X023720Y022745D03*
X043503Y021187D03*
D15*
X044220Y020970D03*
X046220Y020970D03*
X038970Y022470D03*
X037970Y022470D03*
X036970Y022845D03*
X032970Y022845D03*
X023720Y021945D03*
X004720Y014470D03*
X004720Y013470D03*
X004720Y011970D03*
X004720Y010970D03*
X003945Y007595D03*
D16*
X006095Y011096D03*
X006095Y011844D03*
D17*
X012970Y014845D03*
D18*
X013970Y014845D03*
X013970Y013845D03*
X012970Y013845D03*
X012970Y012845D03*
X013970Y012845D03*
X008720Y015595D03*
X007720Y014095D03*
X005720Y009220D03*
X006595Y007345D03*
X006595Y005845D03*
D19*
X010221Y008095D03*
X010969Y008095D03*
X012971Y011720D03*
X013719Y011720D03*
G36*
X012044Y013376D02*
X012591Y013154D01*
X012340Y012534D01*
X011793Y012756D01*
X012044Y013376D01*
G37*
G36*
X011350Y013656D02*
X011897Y013434D01*
X011646Y012814D01*
X011099Y013036D01*
X011350Y013656D01*
G37*
X008469Y017470D03*
X007721Y017470D03*
X005081Y017460D03*
X004333Y017460D03*
X008471Y023220D03*
X009219Y023220D03*
X012346Y023220D03*
X013094Y023220D03*
X015221Y021220D03*
X015969Y021220D03*
D20*
X016095Y020345D03*
X015095Y020345D03*
X014095Y020345D03*
X013095Y020345D03*
X012095Y020345D03*
X011095Y020345D03*
X010095Y020345D03*
X009095Y020345D03*
X008095Y020345D03*
X007095Y020345D03*
X006095Y020345D03*
X005095Y020345D03*
X005095Y019345D03*
X006095Y019345D03*
X007095Y019345D03*
X008095Y019345D03*
X009095Y019345D03*
X010095Y019345D03*
X011095Y019345D03*
X012095Y019345D03*
X013095Y019345D03*
X014095Y019345D03*
X015095Y019345D03*
X016095Y019345D03*
X016095Y018345D03*
X015095Y018345D03*
X014095Y018345D03*
X013095Y018345D03*
X012095Y018345D03*
X011095Y018345D03*
X010095Y018345D03*
X009095Y018345D03*
X008095Y018345D03*
X007095Y018345D03*
X006095Y018345D03*
X005095Y018345D03*
D21*
X024595Y021794D03*
X024595Y022896D03*
D22*
X033946Y022845D03*
X033946Y022345D03*
X033946Y021845D03*
X035994Y021845D03*
X035994Y022345D03*
X035994Y022845D03*
X035994Y023345D03*
X033946Y023345D03*
X015494Y009095D03*
X015494Y008595D03*
X015494Y008095D03*
X015494Y007595D03*
X013446Y007595D03*
X013446Y008095D03*
X013446Y008595D03*
X013446Y009095D03*
D23*
X028220Y022169D03*
X028220Y023271D03*
D24*
X026896Y022720D03*
X025794Y022720D03*
D25*
X038596Y020970D03*
X039344Y020970D03*
D26*
X037595Y020846D03*
X037595Y021594D03*
D27*
X040104Y022720D03*
X041836Y022720D03*
D28*
X042891Y021966D02*
X042819Y022038D01*
X043055Y022038D01*
X043222Y021871D01*
X043222Y021635D01*
X043055Y021468D01*
X042819Y021468D01*
X042652Y021635D01*
X042652Y021871D01*
X042819Y022038D01*
X042863Y021931D01*
X043011Y021931D01*
X043115Y021827D01*
X043115Y021679D01*
X043011Y021575D01*
X042863Y021575D01*
X042759Y021679D01*
X042759Y021827D01*
X042863Y021931D01*
X042908Y021823D01*
X042966Y021823D01*
X043007Y021782D01*
X043007Y021724D01*
X042966Y021683D01*
X042908Y021683D01*
X042867Y021724D01*
X042867Y021782D01*
X042908Y021823D01*
D29*
X043044Y022720D03*
X044146Y022720D03*
G36*
X004958Y007926D02*
X004456Y008428D01*
X005012Y008984D01*
X005514Y008482D01*
X004958Y007926D01*
G37*
G36*
X004178Y008706D02*
X003676Y009208D01*
X004232Y009764D01*
X004734Y009262D01*
X004178Y008706D01*
G37*
D30*
X018613Y021845D02*
X019328Y021845D01*
X019328Y022845D02*
X018613Y022845D01*
D31*
X020231Y023162D02*
X020866Y023162D01*
X022034Y023162D02*
X022669Y023162D01*
X022669Y022359D02*
X022034Y022359D01*
X020866Y022359D02*
X020231Y022359D01*
X020231Y021556D02*
X020866Y021556D01*
X022034Y021556D02*
X022669Y021556D01*
X014538Y021220D02*
X013903Y021220D01*
X013903Y022220D02*
X014538Y022220D01*
X014538Y023220D02*
X013903Y023220D01*
X010663Y023220D02*
X010028Y023220D01*
X010028Y022220D02*
X010663Y022220D01*
X010663Y021220D02*
X010028Y021220D01*
X006788Y021220D02*
X006153Y021220D01*
X006153Y022220D02*
X006788Y022220D01*
X006788Y023220D02*
X006153Y023220D01*
D32*
X007720Y022345D03*
X008720Y022345D03*
X011595Y022345D03*
X012595Y022345D03*
X015470Y022345D03*
X016470Y022345D03*
D33*
X012595Y021810D03*
X012595Y020630D03*
X008595Y020630D03*
X008595Y021810D03*
D34*
X007720Y023220D03*
X011595Y023220D03*
X011220Y014095D03*
X011970Y012220D03*
X015345Y010345D03*
X012470Y009345D03*
X010970Y009720D03*
X010595Y008970D03*
X008220Y008470D03*
X007345Y008595D03*
X007720Y007720D03*
X005845Y008095D03*
X007345Y009845D03*
X005220Y010095D03*
X030970Y021720D03*
X033220Y019470D03*
X036595Y021095D03*
X032845Y016095D03*
X046220Y022095D03*
X032845Y007345D03*
X032845Y005720D03*
X032845Y001220D03*
D35*
X003720Y000845D03*
X003720Y023470D03*
X046470Y023470D03*
X046470Y000845D03*
M02*
