G75*
G70*
%OFA0B0*%
%FSLAX24Y24*%
%IPPOS*%
%LPD*%
%AMOC8*
5,1,8,0,0,1.08239X$1,22.5*
%
%ADD10C,0.0120*%
%ADD11C,0.0160*%
%ADD12C,0.0240*%
%ADD13C,0.0060*%
%ADD14C,0.0030*%
%ADD15R,0.0390X0.0180*%
%ADD16R,0.0180X0.0390*%
%ADD17C,0.0040*%
%ADD18R,0.0571X0.0295*%
%ADD19R,0.0256X0.0551*%
%ADD20R,0.0295X0.0571*%
%ADD21R,0.0669X0.0295*%
%ADD22C,0.0080*%
%ADD23R,0.0433X0.0193*%
%ADD24R,0.0720X0.0230*%
%ADD25R,0.0230X0.0720*%
%ADD26R,0.0140X0.0560*%
%ADD27R,0.0560X0.0140*%
%ADD28R,0.0210X0.0860*%
%ADD29R,0.0217X0.1496*%
%ADD30R,0.0295X0.0669*%
%ADD31R,0.0433X0.0193*%
%ADD32R,0.0689X0.0295*%
%ADD33C,0.0000*%
D10*
X024845Y000720D02*
X024845Y006595D01*
X027845Y006595D01*
X027845Y008345D01*
X026970Y008470D01*
X029720Y008845D02*
X030720Y009345D01*
X030720Y018595D01*
X029095Y018345D01*
X032845Y016220D02*
X032845Y007470D01*
X034470Y006345D02*
X030845Y006345D01*
X030845Y003720D01*
X027845Y003720D01*
X026970Y004720D01*
X032845Y005720D02*
X032845Y001220D01*
X034345Y000720D02*
X024845Y000720D01*
X033595Y004345D02*
X034345Y003720D01*
X034345Y000720D01*
X034470Y006345D02*
X034470Y010595D01*
X033595Y010595D01*
D11*
X018720Y023845D02*
X016095Y020345D01*
X011095Y022720D02*
X008345Y022720D01*
X008095Y021595D01*
X007595Y020720D01*
X006595Y020720D01*
X006595Y018845D01*
X007095Y018345D01*
X007595Y018845D02*
X008095Y019345D01*
X007595Y018845D02*
X007595Y016720D01*
X018720Y023845D02*
X044470Y023845D01*
X046220Y022095D01*
D12*
X011595Y023220D02*
X011095Y022720D01*
X007720Y023220D02*
X007220Y022720D01*
X005595Y022720D01*
X005595Y018345D01*
X006095Y018345D01*
D13*
X004869Y017710D02*
X004546Y017710D01*
X004546Y017210D02*
X004869Y017210D01*
X008280Y020870D02*
X008280Y021579D01*
X008910Y021579D02*
X008910Y020870D01*
X012280Y020870D02*
X012280Y021579D01*
X012910Y021579D02*
X012910Y020870D01*
X015434Y020970D02*
X015756Y020970D01*
X015756Y021470D02*
X015434Y021470D01*
X012881Y022970D02*
X012559Y022970D01*
X012559Y023470D02*
X012881Y023470D01*
X009006Y023470D02*
X008684Y023470D01*
X008684Y022970D02*
X009006Y022970D01*
X025895Y023050D02*
X026795Y023050D01*
X027890Y023170D02*
X027890Y022270D01*
X028550Y022270D02*
X028550Y023170D01*
X026795Y022390D02*
X025895Y022390D01*
X037345Y021500D02*
X037345Y020940D01*
X037845Y020940D02*
X037845Y021500D01*
X038690Y021220D02*
X039250Y021220D01*
X039250Y020720D02*
X038690Y020720D01*
X012088Y013266D02*
X011789Y013387D01*
X011602Y012924D02*
X011901Y012803D01*
X010559Y012955D02*
X007799Y012955D01*
X007799Y010335D01*
X007939Y010195D01*
X010559Y010195D01*
X010559Y012955D01*
X007958Y010495D02*
X007960Y010518D01*
X007966Y010541D01*
X007975Y010562D01*
X007988Y010582D01*
X008004Y010599D01*
X008022Y010613D01*
X008042Y010624D01*
X008064Y010632D01*
X008087Y010636D01*
X008111Y010636D01*
X008134Y010632D01*
X008156Y010624D01*
X008176Y010613D01*
X008194Y010599D01*
X008210Y010582D01*
X008223Y010562D01*
X008232Y010541D01*
X008238Y010518D01*
X008240Y010495D01*
X008238Y010472D01*
X008232Y010449D01*
X008223Y010428D01*
X008210Y010408D01*
X008194Y010391D01*
X008176Y010377D01*
X008156Y010366D01*
X008134Y010358D01*
X008111Y010354D01*
X008087Y010354D01*
X008064Y010358D01*
X008042Y010366D01*
X008022Y010377D01*
X008004Y010391D01*
X007988Y010408D01*
X007975Y010428D01*
X007966Y010449D01*
X007960Y010472D01*
X007958Y010495D01*
X010434Y008345D02*
X010756Y008345D01*
X010756Y007845D02*
X010434Y007845D01*
D14*
X008958Y009270D02*
X008813Y009270D01*
X008764Y009319D01*
X008764Y009512D01*
X008813Y009561D01*
X008958Y009561D01*
X008958Y009270D01*
X008663Y009270D02*
X008518Y009270D01*
X008470Y009319D01*
X008470Y009512D01*
X008518Y009561D01*
X008663Y009561D01*
X008663Y009270D01*
X008368Y009270D02*
X008175Y009270D01*
X008272Y009270D02*
X008272Y009561D01*
X008368Y009464D01*
D15*
X007584Y010473D03*
X007584Y010788D03*
X007584Y011103D03*
X007584Y011418D03*
X007584Y011733D03*
X007584Y012048D03*
X007584Y012363D03*
X007584Y012678D03*
X010774Y012678D03*
X010774Y012363D03*
X010774Y012048D03*
X010774Y011733D03*
X010774Y011418D03*
X010774Y011103D03*
X010774Y010788D03*
X010774Y010473D03*
D16*
X010281Y009980D03*
X009966Y009980D03*
X009651Y009980D03*
X009336Y009980D03*
X009021Y009980D03*
X008706Y009980D03*
X008391Y009980D03*
X008076Y009980D03*
X008076Y013170D03*
X008391Y013170D03*
X008706Y013170D03*
X009021Y013170D03*
X009336Y013170D03*
X009651Y013170D03*
X009966Y013170D03*
X010281Y013170D03*
D17*
X011542Y013778D02*
X011826Y013663D01*
X011684Y013721D02*
X011856Y014148D01*
X011941Y013948D01*
X012112Y013962D02*
X012055Y013819D01*
X012097Y013719D01*
X012311Y013633D01*
X012253Y013491D02*
X012426Y013918D01*
X012212Y014004D01*
X012112Y013962D01*
X012168Y013691D02*
X011969Y013606D01*
X013211Y012700D02*
X013211Y012240D01*
X013058Y012240D02*
X013365Y012240D01*
X013518Y012317D02*
X013595Y012240D01*
X013748Y012240D01*
X013825Y012317D01*
X013825Y012624D01*
X013748Y012700D01*
X013595Y012700D01*
X013518Y012624D01*
X013365Y012547D02*
X013211Y012700D01*
X013195Y011980D02*
X013495Y011980D01*
X013485Y011460D02*
X013195Y011460D01*
X014049Y009875D02*
X014203Y009875D01*
X014279Y009799D01*
X014433Y009799D02*
X014509Y009875D01*
X014740Y009875D01*
X014740Y009415D01*
X014509Y009415D01*
X014433Y009492D01*
X014433Y009799D01*
X014049Y009875D02*
X013972Y009799D01*
X013972Y009722D01*
X014279Y009415D01*
X013972Y009415D01*
X014893Y009492D02*
X014893Y009799D01*
X014970Y009875D01*
X015200Y009875D01*
X015200Y009415D01*
X014970Y009415D01*
X014893Y009492D01*
X012371Y008325D02*
X012141Y008325D01*
X012064Y008249D01*
X012064Y008095D01*
X012141Y008018D01*
X012371Y008018D01*
X012371Y007865D02*
X012371Y008325D01*
X012217Y008018D02*
X012064Y007865D01*
X011910Y007942D02*
X011910Y008018D01*
X011834Y008095D01*
X011680Y008095D01*
X011604Y008018D01*
X011604Y007942D01*
X011680Y007865D01*
X011834Y007865D01*
X011910Y007942D01*
X011834Y008095D02*
X011910Y008172D01*
X011910Y008249D01*
X011834Y008325D01*
X011680Y008325D01*
X011604Y008249D01*
X011604Y008172D01*
X011680Y008095D01*
X006621Y010192D02*
X006544Y010115D01*
X006391Y010115D01*
X006314Y010192D01*
X006160Y010192D02*
X006084Y010115D01*
X005930Y010115D01*
X005854Y010192D01*
X005854Y010345D01*
X005930Y010422D01*
X006007Y010422D01*
X006160Y010345D01*
X006160Y010575D01*
X005854Y010575D01*
X006314Y010499D02*
X006391Y010575D01*
X006544Y010575D01*
X006621Y010499D01*
X006621Y010192D01*
X006355Y011320D02*
X006355Y011610D01*
X005835Y011620D02*
X005835Y011320D01*
X004545Y009333D02*
X005083Y008795D01*
X004645Y008357D02*
X004107Y008895D01*
X004028Y008678D02*
X003702Y008352D01*
X003810Y008244D02*
X003593Y008461D01*
X003485Y008569D02*
X003268Y008786D01*
X003376Y008678D02*
X003702Y009003D01*
X003702Y008786D01*
X004028Y008678D02*
X004028Y008461D01*
X004190Y008406D02*
X004299Y008406D01*
X004407Y008298D01*
X004407Y008189D01*
X004190Y007972D01*
X004082Y007972D01*
X003973Y008081D01*
X003973Y008189D01*
X007945Y017210D02*
X008235Y017210D01*
X008245Y017730D02*
X007945Y017730D01*
X007884Y017990D02*
X007884Y018450D01*
X008115Y018220D01*
X007808Y018220D01*
X008268Y018067D02*
X008345Y017990D01*
X008498Y017990D01*
X008575Y018067D01*
X008575Y018374D01*
X008498Y018450D01*
X008345Y018450D01*
X008268Y018374D01*
X004937Y018440D02*
X004937Y017980D01*
X004937Y018133D02*
X004707Y018133D01*
X004630Y018210D01*
X004630Y018364D01*
X004707Y018440D01*
X004937Y018440D01*
X004784Y018133D02*
X004630Y017980D01*
X004477Y017980D02*
X004170Y018287D01*
X004170Y018364D01*
X004247Y018440D01*
X004400Y018440D01*
X004477Y018364D01*
X004477Y017980D02*
X004170Y017980D01*
X007615Y021069D02*
X008075Y021069D01*
X008075Y021299D01*
X007999Y021376D01*
X007845Y021376D01*
X007769Y021299D01*
X007769Y021069D01*
X007769Y021223D02*
X007615Y021376D01*
X007692Y021530D02*
X007615Y021606D01*
X007615Y021760D01*
X007692Y021837D01*
X007769Y021837D01*
X007845Y021760D01*
X007845Y021683D01*
X007845Y021760D02*
X007922Y021837D01*
X007999Y021837D01*
X008075Y021760D01*
X008075Y021606D01*
X007999Y021530D01*
X008805Y022240D02*
X008805Y022700D01*
X009035Y022470D01*
X008729Y022470D01*
X009189Y022470D02*
X009189Y022624D01*
X009266Y022700D01*
X009496Y022700D01*
X009496Y022240D01*
X009496Y022393D02*
X009266Y022393D01*
X009189Y022470D01*
X009342Y022393D02*
X009189Y022240D01*
X011615Y021760D02*
X011615Y021606D01*
X011692Y021530D01*
X011845Y021530D02*
X011922Y021683D01*
X011922Y021760D01*
X011845Y021837D01*
X011692Y021837D01*
X011615Y021760D01*
X011845Y021530D02*
X012075Y021530D01*
X012075Y021837D01*
X012604Y022317D02*
X012680Y022240D01*
X012834Y022240D01*
X012910Y022317D01*
X012910Y022470D01*
X012680Y022470D01*
X012604Y022393D01*
X012604Y022317D01*
X012910Y022470D02*
X012757Y022624D01*
X012604Y022700D01*
X013064Y022624D02*
X013064Y022470D01*
X013141Y022393D01*
X013371Y022393D01*
X013371Y022240D02*
X013371Y022700D01*
X013141Y022700D01*
X013064Y022624D01*
X013217Y022393D02*
X013064Y022240D01*
X012075Y021299D02*
X011999Y021376D01*
X011845Y021376D01*
X011769Y021299D01*
X011769Y021069D01*
X011769Y021223D02*
X011615Y021376D01*
X011615Y021069D02*
X012075Y021069D01*
X012075Y021299D01*
X015058Y022124D02*
X015365Y021817D01*
X015365Y021740D01*
X015518Y021740D02*
X015672Y021893D01*
X015595Y021893D02*
X015825Y021893D01*
X015825Y021740D02*
X015825Y022200D01*
X015595Y022200D01*
X015518Y022124D01*
X015518Y021970D01*
X015595Y021893D01*
X015365Y022200D02*
X015058Y022200D01*
X015058Y022124D01*
X024183Y021275D02*
X024183Y021199D01*
X024490Y020892D01*
X024490Y020815D01*
X024643Y020892D02*
X024720Y020815D01*
X024873Y020815D01*
X024950Y020892D01*
X024950Y021199D01*
X024873Y021275D01*
X024720Y021275D01*
X024643Y021199D01*
X024490Y021275D02*
X024183Y021275D01*
X024285Y021965D02*
X024285Y022725D01*
X024905Y022725D02*
X024905Y021965D01*
X025979Y021817D02*
X026055Y021740D01*
X026209Y021740D01*
X026285Y021817D01*
X025979Y022124D01*
X025979Y021817D01*
X026285Y021817D02*
X026285Y022124D01*
X026209Y022200D01*
X026055Y022200D01*
X025979Y022124D01*
X026439Y021740D02*
X026746Y021740D01*
X026899Y021740D02*
X027053Y021893D01*
X026976Y021893D02*
X027206Y021893D01*
X027206Y021740D02*
X027206Y022200D01*
X026976Y022200D01*
X026899Y022124D01*
X026899Y021970D01*
X026976Y021893D01*
X026746Y022047D02*
X026592Y022200D01*
X026592Y021740D01*
X028740Y021859D02*
X029200Y021859D01*
X029200Y022089D01*
X029124Y022166D01*
X028970Y022166D01*
X028894Y022089D01*
X028894Y021859D01*
X028894Y022012D02*
X028740Y022166D01*
X028740Y022319D02*
X028740Y022626D01*
X028740Y022473D02*
X029200Y022473D01*
X029047Y022319D01*
X029047Y022780D02*
X029200Y022933D01*
X028740Y022933D01*
X028740Y022780D02*
X028740Y023087D01*
X031097Y022540D02*
X031404Y022540D01*
X031251Y022540D02*
X031251Y023000D01*
X031404Y022847D01*
X031558Y022847D02*
X031558Y022540D01*
X031558Y022770D02*
X031865Y022770D01*
X031865Y022847D02*
X031711Y023000D01*
X031558Y022847D01*
X031865Y022847D02*
X031865Y022540D01*
X032018Y022617D02*
X032018Y022924D01*
X032095Y023000D01*
X032325Y023000D01*
X032325Y022540D01*
X032095Y022540D01*
X032018Y022617D01*
X038229Y021749D02*
X038305Y021825D01*
X038459Y021825D01*
X038535Y021749D01*
X038229Y021749D02*
X038229Y021672D01*
X038535Y021365D01*
X038229Y021365D01*
X038689Y021365D02*
X038996Y021365D01*
X039149Y021365D02*
X039303Y021518D01*
X039226Y021518D02*
X039456Y021518D01*
X039456Y021365D02*
X039456Y021825D01*
X039226Y021825D01*
X039149Y021749D01*
X039149Y021595D01*
X039226Y021518D01*
X038996Y021672D02*
X038842Y021825D01*
X038842Y021365D01*
X039979Y021374D02*
X039979Y021297D01*
X040055Y021220D01*
X039979Y021143D01*
X039979Y021067D01*
X040055Y020990D01*
X040209Y020990D01*
X040285Y021067D01*
X040439Y020990D02*
X040746Y020990D01*
X040899Y020990D02*
X041053Y021143D01*
X040976Y021143D02*
X041206Y021143D01*
X041206Y020990D02*
X041206Y021450D01*
X040976Y021450D01*
X040899Y021374D01*
X040899Y021220D01*
X040976Y021143D01*
X040746Y021297D02*
X040592Y021450D01*
X040592Y020990D01*
X040132Y021220D02*
X040055Y021220D01*
X039979Y021374D02*
X040055Y021450D01*
X040209Y021450D01*
X040285Y021374D01*
X040080Y021970D02*
X040080Y023470D01*
X041860Y023470D01*
X041860Y021970D01*
X040080Y021970D01*
X042447Y023340D02*
X042754Y023340D01*
X042601Y023340D02*
X042601Y023800D01*
X042754Y023647D01*
X042908Y023724D02*
X042984Y023800D01*
X043215Y023800D01*
X043215Y023340D01*
X042984Y023340D01*
X042908Y023417D01*
X042908Y023724D01*
X043368Y023800D02*
X043368Y023493D01*
X043522Y023340D01*
X043675Y023493D01*
X043675Y023800D01*
X043975Y023030D02*
X043215Y023030D01*
X043215Y022410D02*
X043975Y022410D01*
X044854Y022567D02*
X044854Y022874D01*
X045160Y022567D01*
X045084Y022490D01*
X044930Y022490D01*
X044854Y022567D01*
X045160Y022567D02*
X045160Y022874D01*
X045084Y022950D01*
X044930Y022950D01*
X044854Y022874D01*
X045314Y022490D02*
X045621Y022490D01*
X045467Y022490D02*
X045467Y022950D01*
X045621Y022797D01*
X045774Y022874D02*
X045851Y022950D01*
X046004Y022950D01*
X046081Y022874D01*
X046081Y022567D01*
X046004Y022490D01*
X045851Y022490D01*
X045774Y022567D01*
D18*
X006095Y011752D03*
X006095Y011182D03*
D19*
X010303Y008094D03*
X010883Y008094D03*
G36*
X012101Y013288D02*
X012337Y013193D01*
X012131Y012684D01*
X011895Y012779D01*
X012101Y013288D01*
G37*
G36*
X011563Y013505D02*
X011799Y013410D01*
X011593Y012901D01*
X011357Y012996D01*
X011563Y013505D01*
G37*
X004999Y017461D03*
X004419Y017461D03*
X008553Y023219D03*
X009133Y023219D03*
X012428Y023219D03*
X013008Y023219D03*
X015307Y021221D03*
X015887Y021221D03*
D20*
X008377Y017470D03*
X007807Y017470D03*
X013057Y011720D03*
X013627Y011720D03*
D21*
X024595Y021823D03*
X024595Y022867D03*
D22*
X013722Y009290D02*
X013722Y007400D01*
X015021Y007400D01*
X015021Y009290D01*
X013722Y009290D01*
X015021Y009290D02*
X015218Y009290D01*
X015218Y007400D01*
X015021Y007400D01*
X034222Y021650D02*
X034222Y023540D01*
X035521Y023540D01*
X035521Y021650D01*
X035718Y021650D01*
X035718Y023540D01*
X035521Y023540D01*
X035521Y021650D02*
X034222Y021650D01*
X040894Y022326D02*
X040894Y023114D01*
X041297Y022720D01*
X040894Y022326D01*
D23*
X035974Y022345D03*
X035974Y021845D03*
X035974Y022845D03*
X035974Y023345D03*
X033966Y023345D03*
X033966Y022845D03*
X033966Y022345D03*
X033966Y021845D03*
D24*
X028220Y022165D03*
X028220Y023275D03*
D25*
X026900Y022720D03*
X025790Y022720D03*
D26*
X038630Y020970D03*
X039310Y020970D03*
D27*
X037595Y020880D03*
X037595Y021560D03*
D28*
X039975Y022720D03*
X041965Y022720D03*
D29*
X041393Y022720D03*
D30*
X043073Y022720D03*
X044117Y022720D03*
G36*
X004832Y008135D02*
X004624Y008343D01*
X005096Y008815D01*
X005304Y008607D01*
X004832Y008135D01*
G37*
G36*
X004094Y008875D02*
X003886Y009083D01*
X004358Y009555D01*
X004566Y009347D01*
X004094Y008875D01*
G37*
D31*
X013466Y009095D03*
X013466Y008595D03*
X013466Y008095D03*
X013466Y007595D03*
X015474Y007595D03*
X015474Y008095D03*
X015474Y008595D03*
X015474Y009095D03*
D32*
X012596Y020722D03*
X012596Y021722D03*
X008596Y021722D03*
X008596Y020722D03*
D33*
X008095Y019345D02*
X007721Y017470D01*
X007095Y018345D02*
X011595Y023220D01*
X007720Y023220D02*
X006095Y018345D01*
X016720Y019970D02*
X046220Y020970D01*
X032845Y016095D02*
X035717Y007917D01*
X033937Y007917D02*
X032845Y005720D01*
X033208Y005357D02*
X032845Y001220D01*
X030595Y001095D02*
X027595Y004470D01*
X027595Y007763D01*
X026851Y008507D01*
X029006Y009720D02*
X028631Y011067D01*
X029610Y008897D02*
X029021Y018346D01*
X029610Y016976D02*
X032170Y016976D01*
X025871Y016976D02*
X023311Y016976D01*
X033547Y010677D02*
X026851Y004768D01*
X021845Y008020D02*
X020235Y009845D01*
X036107Y004378D02*
X037087Y002208D01*
X038867Y002208D02*
X038095Y003720D01*
X039847Y010677D02*
X042017Y011657D01*
M02*
