G75*
G70*
%OFA0B0*%
%FSLAX24Y24*%
%IPPOS*%
%LPD*%
%AMOC8*
5,1,8,0,0,1.08239X$1,22.5*
%
%ADD10R,0.0715X0.0715*%
%ADD11C,0.0630*%
%ADD12C,0.0635*%
%ADD13OC8,0.0635*%
%ADD14C,0.0715*%
%ADD15OC8,0.0715*%
%ADD16R,0.0635X0.0635*%
%ADD17C,0.0127*%
%ADD18C,0.0715*%
%ADD19C,0.0635*%
%ADD20R,0.0591X0.0512*%
%ADD21OC8,0.0760*%
%ADD22C,0.0160*%
%ADD23C,0.0240*%
%ADD24C,0.0700*%
%ADD25C,0.0120*%
%ADD26R,0.0760X0.0760*%
D10*
X004803Y002208D03*
X006583Y002208D03*
X007953Y002208D03*
X009733Y002208D03*
X011103Y002208D03*
X012883Y002208D03*
X014252Y002208D03*
X016032Y002208D03*
X017012Y002598D03*
X019572Y002598D03*
X020551Y002208D03*
X022331Y002208D03*
X023311Y002598D03*
X025871Y002598D03*
X026851Y002208D03*
X028631Y002208D03*
X029610Y002598D03*
X032170Y002598D03*
X033547Y002598D03*
X036107Y002598D03*
X037087Y002208D03*
X038867Y002208D03*
X039847Y002598D03*
X042407Y002598D03*
X043386Y002208D03*
X045166Y002208D03*
X045166Y003783D03*
X045166Y004768D03*
X043386Y004768D03*
X042407Y004378D03*
X043386Y003783D03*
X042017Y005357D03*
X040237Y005357D03*
X039257Y005747D03*
X038867Y004768D03*
X039847Y004378D03*
X037087Y004768D03*
X036107Y004378D03*
X035717Y005357D03*
X036697Y005747D03*
X033937Y005357D03*
X033547Y004378D03*
X032170Y004378D03*
X031780Y005357D03*
X030000Y005357D03*
X029021Y005747D03*
X028631Y004768D03*
X029610Y004378D03*
X026851Y004768D03*
X025871Y004378D03*
X025481Y005357D03*
X026461Y005747D03*
X023701Y005357D03*
X022721Y005747D03*
X022331Y004768D03*
X023311Y004378D03*
X020551Y004768D03*
X019572Y004378D03*
X019182Y005357D03*
X020161Y005747D03*
X017402Y005357D03*
X016032Y004768D03*
X017012Y004378D03*
X014252Y004768D03*
X012883Y004768D03*
X011103Y004768D03*
X009733Y004768D03*
X007953Y004768D03*
X006583Y004768D03*
X004803Y004768D03*
X008845Y007220D03*
X009845Y007220D03*
X010845Y007220D03*
X011845Y007220D03*
X017012Y008897D03*
X017402Y007917D03*
X019182Y007917D03*
X020161Y007527D03*
X020551Y008507D03*
X019572Y008897D03*
X022331Y008507D03*
X023311Y008897D03*
X023701Y007917D03*
X022721Y007527D03*
X025481Y007917D03*
X026461Y007527D03*
X026851Y008507D03*
X025871Y008897D03*
X028631Y008507D03*
X029610Y008897D03*
X030000Y007917D03*
X029021Y007527D03*
X031780Y007917D03*
X032170Y008897D03*
X033547Y008897D03*
X033937Y007917D03*
X035717Y007917D03*
X036697Y007527D03*
X037087Y008507D03*
X036107Y008897D03*
X038867Y008507D03*
X039847Y008897D03*
X040237Y007917D03*
X039257Y007527D03*
X042017Y007917D03*
X043386Y008507D03*
X042407Y008897D03*
X045166Y008507D03*
X045166Y006343D03*
X043386Y006343D03*
X042407Y010677D03*
X043386Y011067D03*
X042017Y011657D03*
X042996Y012047D03*
X045166Y011067D03*
X045556Y012047D03*
X045556Y013827D03*
X045166Y014806D03*
X043386Y014806D03*
X042407Y015196D03*
X042017Y014217D03*
X042996Y013827D03*
X040237Y014217D03*
X039257Y013827D03*
X038867Y014806D03*
X039847Y015196D03*
X037087Y014806D03*
X036107Y015196D03*
X035717Y014217D03*
X036697Y013827D03*
X033937Y014217D03*
X033547Y015196D03*
X032170Y015196D03*
X031780Y014217D03*
X030000Y014217D03*
X029021Y013827D03*
X028631Y014806D03*
X029610Y015196D03*
X026851Y014806D03*
X025871Y015196D03*
X025481Y014217D03*
X026461Y013827D03*
X023701Y014217D03*
X022721Y013827D03*
X022331Y014806D03*
X023311Y015196D03*
X020551Y014806D03*
X019572Y015196D03*
X019182Y014217D03*
X020161Y013827D03*
X017402Y014217D03*
X017012Y015196D03*
X017012Y016976D03*
X017402Y017956D03*
X019182Y017956D03*
X020161Y018346D03*
X020551Y017366D03*
X019572Y016976D03*
X022331Y017366D03*
X023311Y016976D03*
X023701Y017956D03*
X022721Y018346D03*
X025481Y017956D03*
X026461Y018346D03*
X026851Y017366D03*
X025871Y016976D03*
X028631Y017366D03*
X029610Y016976D03*
X030000Y017956D03*
X029021Y018346D03*
X031780Y017956D03*
X032170Y016976D03*
X033547Y016976D03*
X033937Y017956D03*
X035717Y017956D03*
X036697Y018346D03*
X037087Y017366D03*
X036107Y016976D03*
X038867Y017366D03*
X039847Y016976D03*
X040237Y017956D03*
X039257Y018346D03*
X042017Y017956D03*
X042996Y018346D03*
X043386Y017366D03*
X042407Y016976D03*
X045166Y017366D03*
X045556Y018346D03*
X045556Y020126D03*
X042996Y020126D03*
X042017Y020516D03*
X040237Y020516D03*
X039257Y020126D03*
X036697Y020126D03*
X035717Y020516D03*
X033937Y020516D03*
X031780Y020516D03*
X030000Y020516D03*
X029021Y020126D03*
X026461Y020126D03*
X025481Y020516D03*
X023701Y020516D03*
X022721Y020126D03*
X020161Y020126D03*
X019182Y020516D03*
X017402Y020516D03*
X020161Y012047D03*
X019182Y011657D03*
X020551Y011067D03*
X019572Y010677D03*
X017402Y011657D03*
X017012Y010677D03*
X022331Y011067D03*
X023311Y010677D03*
X023701Y011657D03*
X022721Y012047D03*
X025481Y011657D03*
X026461Y012047D03*
X026851Y011067D03*
X025871Y010677D03*
X028631Y011067D03*
X029610Y010677D03*
X030000Y011657D03*
X029021Y012047D03*
X031780Y011657D03*
X032170Y010677D03*
X033547Y010677D03*
X033937Y011657D03*
X035717Y011657D03*
X036697Y012047D03*
X037087Y011067D03*
X036107Y010677D03*
X038867Y011067D03*
X039847Y010677D03*
X040237Y011657D03*
X039257Y012047D03*
D11*
X015319Y016500D03*
X013595Y016704D03*
X012595Y016704D03*
X011595Y016704D03*
X010595Y016704D03*
X009595Y016704D03*
X008595Y016704D03*
X007595Y016704D03*
X005871Y016500D03*
X005871Y006657D03*
X015319Y006657D03*
D12*
X004745Y007595D03*
X006220Y012645D03*
X006220Y014545D03*
X023720Y022745D03*
X043503Y021187D03*
D13*
X044220Y020970D03*
X046220Y020970D03*
X038970Y022470D03*
X037970Y022470D03*
X036970Y022845D03*
X032970Y022845D03*
X023720Y021945D03*
X004720Y014470D03*
X004720Y013470D03*
X004720Y011970D03*
X004720Y010970D03*
X003945Y007595D03*
D14*
X012970Y014845D03*
D15*
X013970Y014845D03*
X013970Y013845D03*
X012970Y013845D03*
X012970Y012845D03*
X013970Y012845D03*
X008720Y015595D03*
X007720Y014095D03*
X005720Y009220D03*
X006595Y007345D03*
X006595Y005845D03*
D16*
X006095Y018345D03*
X005095Y018345D03*
X005095Y019345D03*
X006095Y019345D03*
X007095Y019345D03*
X008095Y019345D03*
X009095Y019345D03*
X010095Y019345D03*
X011095Y019345D03*
X012095Y019345D03*
X013095Y019345D03*
X014095Y019345D03*
X015095Y019345D03*
X016095Y019345D03*
X016095Y018345D03*
X015095Y018345D03*
X014095Y018345D03*
X013095Y018345D03*
X012095Y018345D03*
X011095Y018345D03*
X010095Y018345D03*
X009095Y018345D03*
X008095Y018345D03*
X007095Y018345D03*
X007095Y020345D03*
X006095Y020345D03*
X005095Y020345D03*
X008095Y020345D03*
X009095Y020345D03*
X010095Y020345D03*
X011095Y020345D03*
X012095Y020345D03*
X013095Y020345D03*
X014095Y020345D03*
X015095Y020345D03*
X016095Y020345D03*
D17*
X042896Y021942D02*
X042832Y022006D01*
X043042Y022006D01*
X043190Y021858D01*
X043190Y021648D01*
X043042Y021500D01*
X042832Y021500D01*
X042684Y021648D01*
X042684Y021858D01*
X042832Y022006D01*
X042871Y021911D01*
X043003Y021911D01*
X043095Y021819D01*
X043095Y021687D01*
X043003Y021595D01*
X042871Y021595D01*
X042779Y021687D01*
X042779Y021819D01*
X042871Y021911D01*
X042911Y021815D01*
X042963Y021815D01*
X042999Y021779D01*
X042999Y021727D01*
X042963Y021691D01*
X042911Y021691D01*
X042875Y021727D01*
X042875Y021779D01*
X042911Y021815D01*
D18*
X019328Y021845D02*
X018613Y021845D01*
X018613Y022845D02*
X019328Y022845D01*
D19*
X020231Y023162D02*
X020866Y023162D01*
X022034Y023162D02*
X022669Y023162D01*
X022669Y022359D02*
X022034Y022359D01*
X020866Y022359D02*
X020231Y022359D01*
X020231Y021556D02*
X020866Y021556D01*
X022034Y021556D02*
X022669Y021556D01*
X014538Y021220D02*
X013903Y021220D01*
X013903Y022220D02*
X014538Y022220D01*
X014538Y023220D02*
X013903Y023220D01*
X010663Y023220D02*
X010028Y023220D01*
X010028Y022220D02*
X010663Y022220D01*
X010663Y021220D02*
X010028Y021220D01*
X006788Y021220D02*
X006153Y021220D01*
X006153Y022220D02*
X006788Y022220D01*
X006788Y023220D02*
X006153Y023220D01*
D20*
X007970Y006719D03*
X007970Y005971D03*
D21*
X007720Y022345D03*
X008720Y022345D03*
X011595Y022345D03*
X012595Y022345D03*
X015470Y022345D03*
X016470Y022345D03*
D22*
X013095Y018345D02*
X013095Y017095D01*
X012095Y017095D02*
X012095Y018345D01*
X011095Y018345D02*
X011095Y017095D01*
X011595Y016704D02*
X011595Y015720D01*
X011220Y015345D01*
X011220Y014095D01*
X010720Y014720D02*
X010095Y014095D01*
X010095Y009470D01*
X010595Y008970D01*
X009595Y010095D02*
X009595Y014345D01*
X010095Y014845D01*
X010095Y016220D01*
X009345Y016095D02*
X009095Y016345D01*
X009095Y018345D01*
X010095Y018345D02*
X010095Y017095D01*
X011095Y016220D02*
X011095Y015845D01*
X010720Y015470D01*
X010720Y014720D01*
X009345Y015095D02*
X009345Y016095D01*
X007720Y015970D02*
X007720Y015095D01*
X008345Y014720D02*
X008345Y009970D01*
X007595Y009220D01*
X006845Y009220D01*
X008970Y009970D02*
X008970Y014720D01*
X009345Y015095D01*
X006736Y015845D02*
X005720Y015845D01*
X005220Y015345D01*
X005220Y013720D01*
X004970Y013470D01*
X004720Y013470D01*
X012095Y015595D02*
X012095Y016220D01*
X013095Y016220D02*
X013095Y016095D01*
X016345Y016470D02*
X016345Y007720D01*
X016720Y007345D01*
X016720Y005095D01*
X017012Y004378D01*
X022345Y006470D02*
X031095Y006470D01*
X032095Y006845D02*
X025845Y006845D01*
X030000Y007917D02*
X030595Y008512D01*
X030595Y008720D01*
X031595Y009720D01*
X033845Y009720D01*
X034095Y009970D01*
X040220Y009970D01*
X040595Y010345D01*
X040595Y011298D01*
X040237Y011657D01*
X041095Y010095D02*
X040595Y009595D01*
X035595Y009595D01*
X035595Y009575D01*
X033937Y007917D01*
X024845Y013345D02*
X024845Y015470D01*
X025595Y016220D01*
X024470Y016195D02*
X024470Y013720D01*
X017012Y016976D02*
X017006Y016970D01*
X015345Y011595D02*
X015970Y010970D01*
X015970Y010095D01*
X015470Y009595D01*
X012970Y009595D01*
X012470Y009345D01*
D23*
X003720Y000220D02*
X003095Y000220D01*
X003095Y000845D01*
X007953Y002208D02*
X007953Y004768D01*
X007970Y005971D02*
X007469Y005971D01*
X006595Y006845D01*
X006595Y007345D01*
X006470Y007595D01*
X006470Y008095D01*
X005845Y008095D01*
X006470Y008095D02*
X006470Y008845D01*
X006845Y009220D01*
X007345Y009845D02*
X007720Y010220D01*
X007720Y012845D01*
X006970Y013595D01*
X006970Y014345D01*
X007720Y015095D01*
X006736Y015845D02*
X007595Y016704D01*
X005095Y017095D02*
X005095Y018345D01*
X005095Y017095D02*
X003970Y015970D01*
X003970Y010470D01*
X004345Y010095D01*
X005220Y010095D01*
X007720Y007720D02*
X009720Y008095D01*
X010720Y008095D01*
X011720Y009095D01*
X011720Y010845D01*
X012970Y012095D01*
X012970Y012845D01*
X013970Y012845D02*
X013970Y011720D01*
X015345Y010345D01*
X017012Y010677D02*
X019572Y010677D01*
X020395Y009720D02*
X026970Y009720D01*
X027720Y010470D01*
X027720Y011970D01*
X028470Y012720D01*
X032874Y012720D01*
X033937Y011657D01*
X035717Y011657D02*
X035717Y014217D01*
X032845Y016095D02*
X032845Y019095D01*
X033220Y019470D01*
X033937Y020516D02*
X033937Y017956D01*
X033547Y016976D02*
X036107Y016976D01*
X036697Y018346D02*
X039257Y018346D01*
X036595Y021095D02*
X036095Y021345D01*
X032845Y021345D01*
X032470Y021720D01*
X030970Y021720D01*
X031780Y020516D02*
X031780Y017956D01*
X030970Y018595D02*
X030345Y019220D01*
X029926Y019220D01*
X029021Y020126D01*
X030970Y018595D02*
X030970Y013845D01*
X030345Y013220D01*
X029627Y013220D01*
X029021Y013827D01*
X031780Y011657D02*
X030970Y010846D01*
X030970Y010470D01*
X030345Y009845D01*
X028470Y009845D01*
X027720Y009095D01*
X027720Y007845D01*
X027402Y007527D01*
X026461Y007527D01*
X025845Y006845D02*
X025595Y007095D01*
X024345Y007095D01*
X023701Y007739D01*
X023701Y007917D01*
X022331Y008507D02*
X021845Y008020D01*
X021845Y006970D01*
X022345Y006470D01*
X022721Y005747D02*
X020161Y005747D01*
X019182Y005357D02*
X019182Y007917D01*
X019572Y008897D02*
X020395Y009720D01*
X019572Y008897D02*
X017012Y008897D01*
X012470Y009095D02*
X012470Y009345D01*
X012470Y009095D02*
X010845Y007470D01*
X010845Y007220D01*
X010845Y006720D01*
X010096Y005971D01*
X007970Y005971D01*
X007970Y006719D02*
X008845Y007220D01*
X010970Y009720D02*
X010970Y012595D01*
X011845Y013470D01*
X013970Y014845D02*
X014595Y014845D01*
X015345Y014095D01*
X015345Y011595D01*
X020161Y013827D02*
X022721Y013827D01*
X022220Y012970D02*
X023720Y012970D01*
X024470Y013720D01*
X024845Y013345D02*
X024845Y012800D01*
X023701Y011657D01*
X022331Y011067D02*
X021845Y011553D01*
X021845Y012595D01*
X022220Y012970D01*
X022331Y014806D02*
X022331Y017366D01*
X023701Y017956D02*
X023701Y020516D01*
X022721Y018346D02*
X020161Y018346D01*
X019572Y016976D02*
X017012Y016976D01*
X017006Y016970D02*
X016845Y016970D01*
X016345Y016470D01*
X016345Y017470D02*
X014845Y017470D01*
X014470Y017095D01*
X014470Y015970D01*
X013970Y015470D01*
X013970Y014845D01*
X017012Y015196D02*
X019572Y015196D01*
X016345Y017470D02*
X016720Y017970D01*
X016720Y019970D01*
X016345Y020345D01*
X016095Y020345D01*
X024470Y016945D02*
X024470Y016195D01*
X024470Y016945D02*
X025481Y017956D01*
X026461Y018346D02*
X029021Y018346D01*
X030000Y017956D02*
X030470Y017486D01*
X030470Y016595D01*
X030095Y016220D01*
X025595Y016220D01*
X025481Y014217D02*
X025481Y011657D01*
X025871Y010677D02*
X023311Y010677D01*
X023311Y008897D02*
X025871Y008897D01*
X031095Y006470D02*
X031780Y005785D01*
X031780Y005357D01*
X032170Y004378D02*
X033078Y003470D01*
X040720Y003470D01*
X041220Y002970D01*
X041220Y002220D01*
X042095Y001345D01*
X044303Y001345D01*
X045166Y002208D01*
X047095Y000970D02*
X047095Y000220D01*
X046345Y000220D01*
X042407Y004378D02*
X039847Y004378D01*
X036697Y005747D02*
X035974Y006470D01*
X032470Y006470D01*
X032095Y006845D01*
X029021Y005747D02*
X026461Y005747D01*
X026851Y004768D02*
X026851Y002208D01*
X028631Y002208D02*
X028631Y004768D01*
X025871Y004378D02*
X023311Y004378D01*
X022331Y004768D02*
X022331Y002208D01*
X020551Y002208D02*
X020551Y004768D01*
X014252Y004768D02*
X014252Y002208D01*
X012883Y002208D02*
X012883Y004768D01*
X011103Y004768D02*
X011103Y002208D01*
X012090Y001220D01*
X032845Y001220D01*
X032170Y002598D02*
X029610Y002598D01*
X036697Y007527D02*
X039257Y007527D01*
X041095Y010095D02*
X041095Y012220D01*
X041845Y012970D01*
X042140Y012970D01*
X042996Y013827D01*
X045556Y013827D01*
X045556Y012047D02*
X042996Y012047D01*
X039257Y012047D02*
X036697Y012047D01*
X047095Y023220D02*
X047095Y024095D01*
X046095Y024095D01*
X004095Y024095D02*
X003095Y024095D01*
X003095Y023095D01*
D24*
X007720Y023220D03*
X011595Y023220D03*
X011220Y014095D03*
X011970Y012220D03*
X015345Y010345D03*
X012470Y009345D03*
X010970Y009720D03*
X010595Y008970D03*
X008220Y008470D03*
X007345Y008595D03*
X007720Y007720D03*
X005845Y008095D03*
X007345Y009845D03*
X005220Y010095D03*
X030970Y021720D03*
X033220Y019470D03*
X036595Y021095D03*
X032845Y016095D03*
X046220Y022095D03*
X032845Y007345D03*
X032845Y005720D03*
X032845Y001220D03*
D25*
X011970Y012220D02*
X012220Y012845D01*
X012220Y015220D01*
X013095Y016095D01*
X013095Y016220D02*
X013095Y017095D01*
X012095Y017095D02*
X012095Y016220D01*
X011095Y016220D02*
X011095Y017095D01*
X010095Y017095D02*
X010095Y016220D01*
X008595Y016704D02*
X008579Y016704D01*
X008095Y015970D01*
X008095Y014970D01*
X008345Y014720D01*
X007720Y015970D02*
X008095Y016470D01*
X008095Y018345D01*
X011845Y015345D02*
X012095Y015595D01*
X011845Y015345D02*
X011845Y013470D01*
X009595Y010095D02*
X008220Y008470D01*
X007970Y008970D02*
X008970Y009970D01*
X007970Y008970D02*
X007345Y008595D01*
D26*
X003720Y000845D03*
X003720Y023470D03*
X046470Y023470D03*
X046470Y000845D03*
M02*
