G75*
G70*
%OFA0B0*%
%FSLAX24Y24*%
%IPPOS*%
%LPD*%
%AMOC8*
5,1,8,0,0,1.08239X$1,22.5*
%
%ADD10R,0.0795X0.0795*%
%ADD11C,0.0710*%
%ADD12C,0.0715*%
%ADD13OC8,0.0715*%
%ADD14C,0.0795*%
%ADD15OC8,0.0795*%
%ADD16R,0.0715X0.0715*%
%ADD17C,0.0143*%
%ADD18C,0.0795*%
%ADD19C,0.0715*%
%ADD20R,0.0671X0.0592*%
%ADD21OC8,0.0840*%
%ADD22C,0.0780*%
%ADD23R,0.0840X0.0840*%
D10*
X004406Y002208D03*
X006186Y002208D03*
X007556Y002208D03*
X009336Y002208D03*
X010706Y002208D03*
X012486Y002208D03*
X013855Y002208D03*
X015635Y002208D03*
X016615Y002598D03*
X019175Y002598D03*
X020154Y002208D03*
X021934Y002208D03*
X022914Y002598D03*
X025474Y002598D03*
X026454Y002208D03*
X028234Y002208D03*
X029213Y002598D03*
X031773Y002598D03*
X033150Y002598D03*
X035710Y002598D03*
X036690Y002208D03*
X038470Y002208D03*
X039449Y002598D03*
X042009Y002598D03*
X042989Y002208D03*
X044769Y002208D03*
X044769Y003783D03*
X044769Y004768D03*
X042989Y004768D03*
X042009Y004378D03*
X042989Y003783D03*
X041619Y005357D03*
X042989Y006343D03*
X044769Y006343D03*
X041619Y007917D03*
X042989Y008507D03*
X042009Y008897D03*
X039839Y007917D03*
X038860Y007527D03*
X038470Y008507D03*
X039449Y008897D03*
X036690Y008507D03*
X035710Y008897D03*
X035320Y007917D03*
X036300Y007527D03*
X033540Y007917D03*
X033150Y008897D03*
X031773Y008897D03*
X031383Y007917D03*
X029603Y007917D03*
X028624Y007527D03*
X028234Y008507D03*
X029213Y008897D03*
X026454Y008507D03*
X025474Y008897D03*
X025084Y007917D03*
X026064Y007527D03*
X023304Y007917D03*
X022324Y007527D03*
X021934Y008507D03*
X022914Y008897D03*
X020154Y008507D03*
X019175Y008897D03*
X018785Y007917D03*
X019764Y007527D03*
X017005Y007917D03*
X016615Y008897D03*
X016615Y010677D03*
X017005Y011657D03*
X018785Y011657D03*
X019764Y012047D03*
X020154Y011067D03*
X019175Y010677D03*
X021934Y011067D03*
X022914Y010677D03*
X023304Y011657D03*
X022324Y012047D03*
X025084Y011657D03*
X026064Y012047D03*
X026454Y011067D03*
X025474Y010677D03*
X028234Y011067D03*
X029213Y010677D03*
X029603Y011657D03*
X028624Y012047D03*
X031383Y011657D03*
X031773Y010677D03*
X033150Y010677D03*
X033540Y011657D03*
X035320Y011657D03*
X036300Y012047D03*
X036690Y011067D03*
X035710Y010677D03*
X038470Y011067D03*
X039449Y010677D03*
X039839Y011657D03*
X038860Y012047D03*
X041619Y011657D03*
X042599Y012047D03*
X042989Y011067D03*
X042009Y010677D03*
X044769Y011067D03*
X045159Y012047D03*
X045159Y013827D03*
X044769Y014806D03*
X042989Y014806D03*
X042009Y015196D03*
X041619Y014217D03*
X042599Y013827D03*
X039839Y014217D03*
X038860Y013827D03*
X038470Y014806D03*
X039449Y015196D03*
X036690Y014806D03*
X035710Y015196D03*
X035320Y014217D03*
X036300Y013827D03*
X033540Y014217D03*
X033150Y015196D03*
X031773Y015196D03*
X031383Y014217D03*
X029603Y014217D03*
X028624Y013827D03*
X028234Y014806D03*
X029213Y015196D03*
X026454Y014806D03*
X025474Y015196D03*
X025084Y014217D03*
X026064Y013827D03*
X023304Y014217D03*
X022324Y013827D03*
X021934Y014806D03*
X022914Y015196D03*
X020154Y014806D03*
X019175Y015196D03*
X018785Y014217D03*
X019764Y013827D03*
X017005Y014217D03*
X016615Y015196D03*
X016615Y016976D03*
X017005Y017956D03*
X018785Y017956D03*
X019764Y018346D03*
X020154Y017366D03*
X019175Y016976D03*
X021934Y017366D03*
X022914Y016976D03*
X023304Y017956D03*
X022324Y018346D03*
X025084Y017956D03*
X026064Y018346D03*
X026454Y017366D03*
X025474Y016976D03*
X028234Y017366D03*
X029213Y016976D03*
X029603Y017956D03*
X028624Y018346D03*
X031383Y017956D03*
X031773Y016976D03*
X033150Y016976D03*
X033540Y017956D03*
X035320Y017956D03*
X036300Y018346D03*
X036690Y017366D03*
X035710Y016976D03*
X038470Y017366D03*
X039449Y016976D03*
X039839Y017956D03*
X038860Y018346D03*
X041619Y017956D03*
X042599Y018346D03*
X042989Y017366D03*
X042009Y016976D03*
X044769Y017366D03*
X045159Y018346D03*
X045159Y020126D03*
X042599Y020126D03*
X041619Y020516D03*
X039839Y020516D03*
X038860Y020126D03*
X036300Y020126D03*
X035320Y020516D03*
X033540Y020516D03*
X031383Y020516D03*
X029603Y020516D03*
X028624Y020126D03*
X026064Y020126D03*
X025084Y020516D03*
X023304Y020516D03*
X022324Y020126D03*
X019764Y020126D03*
X018785Y020516D03*
X017005Y020516D03*
X011448Y007220D03*
X010448Y007220D03*
X009448Y007220D03*
X008448Y007220D03*
X009336Y004768D03*
X010706Y004768D03*
X012486Y004768D03*
X013855Y004768D03*
X015635Y004768D03*
X016615Y004378D03*
X017005Y005357D03*
X018785Y005357D03*
X019764Y005747D03*
X020154Y004768D03*
X019175Y004378D03*
X021934Y004768D03*
X022914Y004378D03*
X023304Y005357D03*
X022324Y005747D03*
X025084Y005357D03*
X026064Y005747D03*
X026454Y004768D03*
X025474Y004378D03*
X028234Y004768D03*
X029213Y004378D03*
X029603Y005357D03*
X028624Y005747D03*
X031383Y005357D03*
X031773Y004378D03*
X033150Y004378D03*
X033540Y005357D03*
X035320Y005357D03*
X036300Y005747D03*
X036690Y004768D03*
X035710Y004378D03*
X038470Y004768D03*
X038860Y005747D03*
X039839Y005357D03*
X039449Y004378D03*
X044769Y008507D03*
X007556Y004768D03*
X006186Y004768D03*
X004406Y004768D03*
D11*
X005474Y006657D03*
X014922Y006657D03*
X014922Y016500D03*
X013198Y016704D03*
X012198Y016704D03*
X011198Y016704D03*
X010198Y016704D03*
X009198Y016704D03*
X008198Y016704D03*
X007198Y016704D03*
X005474Y016500D03*
D12*
X005823Y014545D03*
X005823Y012645D03*
X004348Y007595D03*
X023323Y022745D03*
X043106Y021187D03*
D13*
X043823Y020970D03*
X045823Y020970D03*
X038573Y022470D03*
X037573Y022470D03*
X036573Y022845D03*
X032573Y022845D03*
X023323Y021945D03*
X004323Y014470D03*
X004323Y013470D03*
X004323Y011970D03*
X004323Y010970D03*
X003548Y007595D03*
D14*
X012573Y014845D03*
D15*
X013573Y014845D03*
X013573Y013845D03*
X012573Y013845D03*
X012573Y012845D03*
X013573Y012845D03*
X008323Y015595D03*
X007323Y014095D03*
X005323Y009220D03*
X006198Y007345D03*
X006198Y005845D03*
D16*
X006698Y018345D03*
X007698Y018345D03*
X008698Y018345D03*
X009698Y018345D03*
X010698Y018345D03*
X011698Y018345D03*
X012698Y018345D03*
X013698Y018345D03*
X014698Y018345D03*
X015698Y018345D03*
X015698Y019345D03*
X014698Y019345D03*
X013698Y019345D03*
X012698Y019345D03*
X011698Y019345D03*
X010698Y019345D03*
X009698Y019345D03*
X008698Y019345D03*
X007698Y019345D03*
X006698Y019345D03*
X005698Y019345D03*
X004698Y019345D03*
X004698Y018345D03*
X005698Y018345D03*
X005698Y020345D03*
X006698Y020345D03*
X007698Y020345D03*
X008698Y020345D03*
X009698Y020345D03*
X010698Y020345D03*
X011698Y020345D03*
X012698Y020345D03*
X013698Y020345D03*
X014698Y020345D03*
X015698Y020345D03*
X004698Y020345D03*
D17*
X042494Y021966D02*
X042422Y022038D01*
X042658Y022038D01*
X042825Y021871D01*
X042825Y021635D01*
X042658Y021468D01*
X042422Y021468D01*
X042255Y021635D01*
X042255Y021871D01*
X042422Y022038D01*
X042466Y021931D01*
X042614Y021931D01*
X042718Y021827D01*
X042718Y021679D01*
X042614Y021575D01*
X042466Y021575D01*
X042362Y021679D01*
X042362Y021827D01*
X042466Y021931D01*
X042511Y021823D01*
X042569Y021823D01*
X042610Y021782D01*
X042610Y021724D01*
X042569Y021683D01*
X042511Y021683D01*
X042470Y021724D01*
X042470Y021782D01*
X042511Y021823D01*
D18*
X018930Y021845D02*
X018215Y021845D01*
X018215Y022845D02*
X018930Y022845D01*
D19*
X019834Y023162D02*
X020469Y023162D01*
X020469Y022359D02*
X019834Y022359D01*
X019834Y021556D02*
X020469Y021556D01*
X021637Y021556D02*
X022272Y021556D01*
X022272Y022359D02*
X021637Y022359D01*
X021637Y023162D02*
X022272Y023162D01*
X014140Y023220D02*
X013505Y023220D01*
X013505Y022220D02*
X014140Y022220D01*
X014140Y021220D02*
X013505Y021220D01*
X010265Y021220D02*
X009630Y021220D01*
X009630Y022220D02*
X010265Y022220D01*
X010265Y023220D02*
X009630Y023220D01*
X006390Y023220D02*
X005755Y023220D01*
X005755Y022220D02*
X006390Y022220D01*
X006390Y021220D02*
X005755Y021220D01*
D20*
X007573Y006719D03*
X007573Y005971D03*
D21*
X007323Y022345D03*
X008323Y022345D03*
X011198Y022345D03*
X012198Y022345D03*
X015073Y022345D03*
X016073Y022345D03*
D22*
X011198Y023220D03*
X007323Y023220D03*
X010823Y014095D03*
X011573Y012220D03*
X014948Y010345D03*
X012073Y009345D03*
X010573Y009720D03*
X010198Y008970D03*
X007823Y008470D03*
X006948Y008595D03*
X005448Y008095D03*
X007323Y007720D03*
X006948Y009845D03*
X004823Y010095D03*
X030573Y021720D03*
X032823Y019470D03*
X036198Y021095D03*
X032448Y016095D03*
X045823Y022095D03*
X032448Y007345D03*
X032448Y005720D03*
X032448Y001220D03*
D23*
X003323Y000845D03*
X003323Y023470D03*
X046073Y023470D03*
X046073Y000845D03*
M02*
