%
M48
M72
T01C0.0315
T02C0.0320
T03C0.0400
%
T01
X3323Y845
X5474Y6657
X7323Y7720
X7823Y8470
X6948Y8595
X5448Y8095
X6948Y9845
X4823Y10095
X10198Y8970
X10573Y9720
X12073Y9345
X14948Y10345
X11573Y12220
X10823Y14095
X14922Y16500
X13198Y16704
X12198Y16704
X11198Y16704
X10198Y16704
X9198Y16704
X8198Y16704
X7198Y16704
X5474Y16500
X7323Y23220
X11198Y23220
X3323Y23470
X30573Y21720
X32823Y19470
X36198Y21095
X32448Y16095
X45823Y22095
X46073Y23470
X32448Y7345
X32448Y5720
X32448Y1220
X46073Y845
X14922Y6657
T02
X4348Y7595
X3548Y7595
X4323Y10970
X4323Y11970
X5823Y12645
X4323Y13470
X4323Y14470
X5823Y14545
X5698Y18345
X6698Y18345
X7698Y18345
X8698Y18345
X9698Y18345
X10698Y18345
X11698Y18345
X12698Y18345
X13698Y18345
X14698Y18345
X15698Y18345
X15698Y19345
X14698Y19345
X13698Y19345
X12698Y19345
X11698Y19345
X10698Y19345
X9698Y19345
X8698Y19345
X7698Y19345
X6698Y19345
X5698Y19345
X4698Y19345
X4698Y18345
X4698Y20345
X5698Y20345
X6698Y20345
X7698Y20345
X8698Y20345
X9698Y20345
X10698Y20345
X11698Y20345
X12698Y20345
X13698Y20345
X14698Y20345
X15698Y20345
X13823Y21220
X13823Y22220
X15073Y22345
X16073Y22345
X13823Y23220
X12198Y22345
X11198Y22345
X9948Y22220
X9948Y21220
X8323Y22345
X7323Y22345
X6073Y22220
X6073Y21220
X6073Y23220
X9948Y23220
X20152Y23162
X20152Y22359
X20152Y21556
X21955Y21556
X21955Y22359
X21955Y23162
X23323Y22745
X23323Y21945
X32573Y22845
X36573Y22845
X37573Y22470
X38573Y22470
X42540Y21753
X43106Y21187
X43823Y20970
X45823Y20970
T03
X45159Y20126
X42599Y20126
X41619Y20516
X39839Y20516
X38860Y20126
X36300Y20126
X35320Y20516
X33540Y20516
X31383Y20516
X29603Y20516
X28624Y20126
X26064Y20126
X25084Y20516
X23304Y20516
X22324Y20126
X19764Y20126
X18785Y20516
X17005Y20516
X18573Y21845
X18573Y22845
X19764Y18346
X18785Y17956
X20154Y17366
X19175Y16976
X17005Y17956
X16615Y16976
X16615Y15196
X17005Y14217
X18785Y14217
X19764Y13827
X20154Y14806
X19175Y15196
X21934Y14806
X22914Y15196
X23304Y14217
X22324Y13827
X25084Y14217
X26064Y13827
X26454Y14806
X25474Y15196
X28234Y14806
X29213Y15196
X29603Y14217
X28624Y13827
X31383Y14217
X31773Y15196
X33150Y15196
X33540Y14217
X35320Y14217
X36300Y13827
X36690Y14806
X35710Y15196
X38470Y14806
X39449Y15196
X39839Y14217
X38860Y13827
X41619Y14217
X42599Y13827
X42989Y14806
X42009Y15196
X44769Y14806
X45159Y13827
X45159Y12047
X44769Y11067
X42989Y11067
X42009Y10677
X41619Y11657
X42599Y12047
X39839Y11657
X38860Y12047
X38470Y11067
X39449Y10677
X36690Y11067
X35710Y10677
X35320Y11657
X36300Y12047
X33540Y11657
X33150Y10677
X31773Y10677
X31383Y11657
X29603Y11657
X28624Y12047
X28234Y11067
X29213Y10677
X26454Y11067
X25474Y10677
X25084Y11657
X26064Y12047
X23304Y11657
X22324Y12047
X21934Y11067
X22914Y10677
X20154Y11067
X19175Y10677
X18785Y11657
X19764Y12047
X17005Y11657
X16615Y10677
X16615Y8897
X17005Y7917
X18785Y7917
X19764Y7527
X20154Y8507
X19175Y8897
X21934Y8507
X22914Y8897
X23304Y7917
X22324Y7527
X25084Y7917
X26064Y7527
X26454Y8507
X25474Y8897
X28234Y8507
X29213Y8897
X29603Y7917
X28624Y7527
X31383Y7917
X31773Y8897
X33150Y8897
X33540Y7917
X35320Y7917
X36300Y7527
X36690Y8507
X35710Y8897
X38470Y8507
X39449Y8897
X39839Y7917
X38860Y7527
X41619Y7917
X42989Y8507
X42009Y8897
X44769Y8507
X44769Y6343
X42989Y6343
X41619Y5357
X42989Y4768
X42009Y4378
X42989Y3783
X44769Y3783
X44769Y4768
X42009Y2598
X42989Y2208
X44769Y2208
X39449Y2598
X38470Y2208
X36690Y2208
X35710Y2598
X33150Y2598
X31773Y2598
X29213Y2598
X28234Y2208
X26454Y2208
X25474Y2598
X22914Y2598
X21934Y2208
X20154Y2208
X19175Y2598
X16615Y2598
X15635Y2208
X13855Y2208
X12486Y2208
X10706Y2208
X9336Y2208
X7556Y2208
X6186Y2208
X4406Y2208
X4406Y4768
X6186Y4768
X7556Y4768
X9336Y4768
X10706Y4768
X12486Y4768
X13855Y4768
X15635Y4768
X16615Y4378
X17005Y5357
X18785Y5357
X19764Y5747
X20154Y4768
X19175Y4378
X21934Y4768
X22914Y4378
X23304Y5357
X22324Y5747
X25084Y5357
X26064Y5747
X26454Y4768
X25474Y4378
X28234Y4768
X29213Y4378
X29603Y5357
X28624Y5747
X31383Y5357
X31773Y4378
X33150Y4378
X33540Y5357
X35320Y5357
X36300Y5747
X36690Y4768
X35710Y4378
X38470Y4768
X38860Y5747
X39839Y5357
X39449Y4378
X39449Y16976
X38470Y17366
X39839Y17956
X38860Y18346
X36690Y17366
X35710Y16976
X35320Y17956
X36300Y18346
X33540Y17956
X33150Y16976
X31773Y16976
X31383Y17956
X29603Y17956
X28624Y18346
X28234Y17366
X29213Y16976
X26454Y17366
X25474Y16976
X25084Y17956
X26064Y18346
X23304Y17956
X22324Y18346
X21934Y17366
X22914Y16976
X13573Y14845
X12573Y14845
X12573Y13845
X13573Y13845
X13573Y12845
X12573Y12845
X8323Y15595
X7323Y14095
X5323Y9220
X6198Y7345
X8448Y7220
X9448Y7220
X10448Y7220
X11448Y7220
X6198Y5845
X41619Y17956
X42599Y18346
X42989Y17366
X42009Y16976
X44769Y17366
X45159Y18346
M30
