G75*
G70*
%OFA0B0*%
%FSLAX24Y24*%
%IPPOS*%
%LPD*%
%AMOC8*
5,1,8,0,0,1.08239X$1,22.5*
%
%ADD10R,0.0500X0.0220*%
%ADD11R,0.0220X0.0500*%
%ADD12R,0.0715X0.0715*%
%ADD13C,0.0630*%
%ADD14C,0.0635*%
%ADD15OC8,0.0635*%
%ADD16R,0.0591X0.0512*%
%ADD17C,0.0715*%
%ADD18OC8,0.0715*%
%ADD19R,0.0512X0.0591*%
%ADD20R,0.0635X0.0635*%
%ADD21R,0.0709X0.0630*%
%ADD22R,0.0866X0.0236*%
%ADD23R,0.0787X0.0630*%
%ADD24R,0.0630X0.0787*%
%ADD25R,0.0512X0.0630*%
%ADD26R,0.0630X0.0512*%
%ADD27R,0.0945X0.0945*%
%ADD28C,0.0127*%
%ADD29R,0.0630X0.0709*%
%ADD30C,0.0715*%
%ADD31C,0.0635*%
%ADD32OC8,0.0760*%
%ADD33R,0.0472X0.0709*%
%ADD34C,0.0120*%
%ADD35C,0.0240*%
%ADD36C,0.0160*%
%ADD37C,0.0700*%
%ADD38R,0.0760X0.0760*%
D10*
X007489Y010473D03*
X007489Y010788D03*
X007489Y011103D03*
X007489Y011418D03*
X007489Y011733D03*
X007489Y012048D03*
X007489Y012363D03*
X007489Y012678D03*
X010869Y012678D03*
X010869Y012363D03*
X010869Y012048D03*
X010869Y011733D03*
X010869Y011418D03*
X010869Y011103D03*
X010869Y010788D03*
X010869Y010473D03*
D11*
X010281Y009885D03*
X009966Y009885D03*
X009651Y009885D03*
X009336Y009885D03*
X009021Y009885D03*
X008706Y009885D03*
X008391Y009885D03*
X008076Y009885D03*
X008076Y013265D03*
X008391Y013265D03*
X008706Y013265D03*
X009021Y013265D03*
X009336Y013265D03*
X009651Y013265D03*
X009966Y013265D03*
X010281Y013265D03*
D12*
X017012Y015196D03*
X017402Y014217D03*
X019182Y014217D03*
X020161Y013827D03*
X020551Y014806D03*
X019572Y015196D03*
X022331Y014806D03*
X023311Y015196D03*
X023701Y014217D03*
X022721Y013827D03*
X025481Y014217D03*
X026461Y013827D03*
X026851Y014806D03*
X025871Y015196D03*
X028631Y014806D03*
X029610Y015196D03*
X030000Y014217D03*
X029021Y013827D03*
X031780Y014217D03*
X032170Y015196D03*
X033547Y015196D03*
X033937Y014217D03*
X035717Y014217D03*
X036697Y013827D03*
X037087Y014806D03*
X036107Y015196D03*
X038867Y014806D03*
X039847Y015196D03*
X040237Y014217D03*
X039257Y013827D03*
X042017Y014217D03*
X042996Y013827D03*
X043386Y014806D03*
X042407Y015196D03*
X045166Y014806D03*
X045556Y013827D03*
X045556Y012047D03*
X045166Y011067D03*
X043386Y011067D03*
X042407Y010677D03*
X042017Y011657D03*
X042996Y012047D03*
X040237Y011657D03*
X039257Y012047D03*
X038867Y011067D03*
X039847Y010677D03*
X037087Y011067D03*
X036107Y010677D03*
X035717Y011657D03*
X036697Y012047D03*
X033937Y011657D03*
X033547Y010677D03*
X032170Y010677D03*
X031780Y011657D03*
X030000Y011657D03*
X029021Y012047D03*
X028631Y011067D03*
X029610Y010677D03*
X026851Y011067D03*
X025871Y010677D03*
X025481Y011657D03*
X026461Y012047D03*
X023701Y011657D03*
X022721Y012047D03*
X022331Y011067D03*
X023311Y010677D03*
X020551Y011067D03*
X019572Y010677D03*
X019182Y011657D03*
X020161Y012047D03*
X017402Y011657D03*
X017012Y010677D03*
X017012Y008897D03*
X017402Y007917D03*
X019182Y007917D03*
X020161Y007527D03*
X020551Y008507D03*
X019572Y008897D03*
X022331Y008507D03*
X023311Y008897D03*
X023701Y007917D03*
X022721Y007527D03*
X025481Y007917D03*
X026461Y007527D03*
X026851Y008507D03*
X025871Y008897D03*
X028631Y008507D03*
X029610Y008897D03*
X030000Y007917D03*
X029021Y007527D03*
X031780Y007917D03*
X032170Y008897D03*
X033547Y008897D03*
X033937Y007917D03*
X035717Y007917D03*
X036697Y007527D03*
X037087Y008507D03*
X036107Y008897D03*
X038867Y008507D03*
X039847Y008897D03*
X040237Y007917D03*
X039257Y007527D03*
X042017Y007917D03*
X043386Y008507D03*
X042407Y008897D03*
X045166Y008507D03*
X045166Y006343D03*
X043386Y006343D03*
X042017Y005357D03*
X043386Y004768D03*
X042407Y004378D03*
X043386Y003783D03*
X042407Y002598D03*
X043386Y002208D03*
X045166Y002208D03*
X045166Y003783D03*
X045166Y004768D03*
X040237Y005357D03*
X039257Y005747D03*
X038867Y004768D03*
X039847Y004378D03*
X037087Y004768D03*
X036107Y004378D03*
X035717Y005357D03*
X036697Y005747D03*
X033937Y005357D03*
X033547Y004378D03*
X032170Y004378D03*
X031780Y005357D03*
X030000Y005357D03*
X029021Y005747D03*
X028631Y004768D03*
X029610Y004378D03*
X026851Y004768D03*
X025871Y004378D03*
X025481Y005357D03*
X026461Y005747D03*
X023701Y005357D03*
X022721Y005747D03*
X022331Y004768D03*
X023311Y004378D03*
X020551Y004768D03*
X019572Y004378D03*
X019182Y005357D03*
X020161Y005747D03*
X017402Y005357D03*
X016032Y004768D03*
X017012Y004378D03*
X014252Y004768D03*
X012883Y004768D03*
X011103Y004768D03*
X009733Y004768D03*
X007953Y004768D03*
X006583Y004768D03*
X004803Y004768D03*
X004803Y002208D03*
X006583Y002208D03*
X007953Y002208D03*
X009733Y002208D03*
X011103Y002208D03*
X012883Y002208D03*
X014252Y002208D03*
X016032Y002208D03*
X017012Y002598D03*
X019572Y002598D03*
X020551Y002208D03*
X022331Y002208D03*
X023311Y002598D03*
X025871Y002598D03*
X026851Y002208D03*
X028631Y002208D03*
X029610Y002598D03*
X032170Y002598D03*
X033547Y002598D03*
X036107Y002598D03*
X037087Y002208D03*
X038867Y002208D03*
X039847Y002598D03*
X039847Y016976D03*
X038867Y017366D03*
X040237Y017956D03*
X039257Y018346D03*
X037087Y017366D03*
X036107Y016976D03*
X035717Y017956D03*
X036697Y018346D03*
X033937Y017956D03*
X033547Y016976D03*
X032170Y016976D03*
X031780Y017956D03*
X030000Y017956D03*
X029021Y018346D03*
X028631Y017366D03*
X029610Y016976D03*
X026851Y017366D03*
X025871Y016976D03*
X025481Y017956D03*
X026461Y018346D03*
X023701Y017956D03*
X022721Y018346D03*
X022331Y017366D03*
X023311Y016976D03*
X020551Y017366D03*
X019572Y016976D03*
X019182Y017956D03*
X020161Y018346D03*
X017402Y017956D03*
X017012Y016976D03*
X020161Y020126D03*
X019182Y020516D03*
X017402Y020516D03*
X022721Y020126D03*
X023701Y020516D03*
X025481Y020516D03*
X026461Y020126D03*
X029021Y020126D03*
X030000Y020516D03*
X031780Y020516D03*
X033937Y020516D03*
X035717Y020516D03*
X036697Y020126D03*
X039257Y020126D03*
X040237Y020516D03*
X042017Y020516D03*
X042996Y020126D03*
X045556Y020126D03*
X045556Y018346D03*
X045166Y017366D03*
X043386Y017366D03*
X042407Y016976D03*
X042017Y017956D03*
X042996Y018346D03*
X011845Y007220D03*
X010845Y007220D03*
X009845Y007220D03*
X008845Y007220D03*
D13*
X005871Y006657D03*
X015319Y006657D03*
X015319Y016500D03*
X013595Y016704D03*
X012595Y016704D03*
X011595Y016704D03*
X010595Y016704D03*
X009595Y016704D03*
X008595Y016704D03*
X007595Y016704D03*
X005871Y016500D03*
D14*
X006220Y014545D03*
X006220Y012645D03*
X004745Y007595D03*
X023720Y022745D03*
X043503Y021187D03*
D15*
X044220Y020970D03*
X046220Y020970D03*
X038970Y022470D03*
X037970Y022470D03*
X036970Y022845D03*
X032970Y022845D03*
X023720Y021945D03*
X004720Y014470D03*
X004720Y013470D03*
X004720Y011970D03*
X004720Y010970D03*
X003945Y007595D03*
D16*
X006095Y011096D03*
X006095Y011844D03*
D17*
X012970Y014845D03*
D18*
X013970Y014845D03*
X013970Y013845D03*
X012970Y013845D03*
X012970Y012845D03*
X013970Y012845D03*
X008720Y015595D03*
X005720Y009220D03*
X006595Y007345D03*
X006595Y005845D03*
D19*
X010221Y008095D03*
X010969Y008095D03*
X012971Y011720D03*
X013719Y011720D03*
G36*
X012066Y013324D02*
X012539Y013132D01*
X012318Y012586D01*
X011845Y012778D01*
X012066Y013324D01*
G37*
G36*
X011372Y013604D02*
X011845Y013412D01*
X011624Y012866D01*
X011151Y013058D01*
X011372Y013604D01*
G37*
X008469Y017470D03*
X007721Y017470D03*
X005081Y017460D03*
X004333Y017460D03*
X008471Y023220D03*
X009219Y023220D03*
X012346Y023220D03*
X013094Y023220D03*
X015221Y021220D03*
X015969Y021220D03*
D20*
X016095Y020345D03*
X015095Y020345D03*
X014095Y020345D03*
X013095Y020345D03*
X012095Y020345D03*
X011095Y020345D03*
X010095Y020345D03*
X009095Y020345D03*
X008095Y020345D03*
X007095Y020345D03*
X006095Y020345D03*
X005095Y020345D03*
X005095Y019345D03*
X006095Y019345D03*
X007095Y019345D03*
X008095Y019345D03*
X009095Y019345D03*
X010095Y019345D03*
X011095Y019345D03*
X012095Y019345D03*
X013095Y019345D03*
X014095Y019345D03*
X015095Y019345D03*
X016095Y019345D03*
X016095Y018345D03*
X015095Y018345D03*
X014095Y018345D03*
X013095Y018345D03*
X012095Y018345D03*
X011095Y018345D03*
X010095Y018345D03*
X009095Y018345D03*
X008095Y018345D03*
X007095Y018345D03*
X006095Y018345D03*
X005095Y018345D03*
D21*
X024595Y021794D03*
X024595Y022896D03*
D22*
X033946Y022845D03*
X033946Y022345D03*
X033946Y021845D03*
X035994Y021845D03*
X035994Y022345D03*
X035994Y022845D03*
X035994Y023345D03*
X033946Y023345D03*
X015494Y009095D03*
X015494Y008595D03*
X015494Y008095D03*
X015494Y007595D03*
X013446Y007595D03*
X013446Y008095D03*
X013446Y008595D03*
X013446Y009095D03*
D23*
X028220Y022169D03*
X028220Y023271D03*
D24*
X026896Y022720D03*
X025794Y022720D03*
D25*
X038596Y020970D03*
X039344Y020970D03*
D26*
X037595Y020846D03*
X037595Y021594D03*
D27*
X040104Y022720D03*
X041836Y022720D03*
D28*
X042896Y021942D02*
X042832Y022006D01*
X043042Y022006D01*
X043190Y021858D01*
X043190Y021648D01*
X043042Y021500D01*
X042832Y021500D01*
X042684Y021648D01*
X042684Y021858D01*
X042832Y022006D01*
X042871Y021911D01*
X043003Y021911D01*
X043095Y021819D01*
X043095Y021687D01*
X043003Y021595D01*
X042871Y021595D01*
X042779Y021687D01*
X042779Y021819D01*
X042871Y021911D01*
X042911Y021815D01*
X042963Y021815D01*
X042999Y021779D01*
X042999Y021727D01*
X042963Y021691D01*
X042911Y021691D01*
X042875Y021727D01*
X042875Y021779D01*
X042911Y021815D01*
D29*
X043044Y022720D03*
X044146Y022720D03*
G36*
X004958Y007982D02*
X004512Y008428D01*
X005012Y008928D01*
X005458Y008482D01*
X004958Y007982D01*
G37*
G36*
X004178Y008762D02*
X003732Y009208D01*
X004232Y009708D01*
X004678Y009262D01*
X004178Y008762D01*
G37*
D30*
X018613Y021845D02*
X019328Y021845D01*
X019328Y022845D02*
X018613Y022845D01*
D31*
X020231Y023162D02*
X020866Y023162D01*
X022034Y023162D02*
X022669Y023162D01*
X022669Y022359D02*
X022034Y022359D01*
X020866Y022359D02*
X020231Y022359D01*
X020231Y021556D02*
X020866Y021556D01*
X022034Y021556D02*
X022669Y021556D01*
X014538Y021220D02*
X013903Y021220D01*
X013903Y022220D02*
X014538Y022220D01*
X014538Y023220D02*
X013903Y023220D01*
X010663Y023220D02*
X010028Y023220D01*
X010028Y022220D02*
X010663Y022220D01*
X010663Y021220D02*
X010028Y021220D01*
X006788Y021220D02*
X006153Y021220D01*
X006153Y022220D02*
X006788Y022220D01*
X006788Y023220D02*
X006153Y023220D01*
D32*
X007720Y022345D03*
X008720Y022345D03*
X011595Y022345D03*
X012595Y022345D03*
X015470Y022345D03*
X016470Y022345D03*
D33*
X012595Y021810D03*
X012595Y020630D03*
X008595Y020630D03*
X008595Y021810D03*
D34*
X014095Y018345D02*
X014470Y017970D01*
X014470Y015845D01*
X015220Y015095D01*
X015595Y015220D02*
X014720Y016095D01*
X014720Y016970D01*
X015095Y017345D01*
X015095Y018345D01*
X014095Y017470D02*
X014095Y015720D01*
X014720Y015095D01*
X014720Y014220D01*
X014345Y013845D01*
X013970Y013845D01*
X013470Y013345D02*
X012595Y013345D01*
X012470Y013470D01*
X012095Y013595D01*
X011748Y013623D01*
X011498Y013235D01*
X012192Y012955D02*
X012970Y012845D01*
X013470Y013345D02*
X013470Y014345D01*
X013970Y014845D01*
X011095Y015720D02*
X009966Y014591D01*
X009966Y013265D01*
X009651Y013265D02*
X009651Y014901D01*
X010595Y015845D01*
X010595Y016704D01*
X009595Y016704D02*
X009595Y015470D01*
X009336Y015211D01*
X009336Y013265D01*
X009021Y013265D02*
X009021Y015044D01*
X008720Y015595D01*
X008706Y014734D02*
X006970Y016470D01*
X006970Y017345D01*
X006595Y017095D02*
X006595Y016220D01*
X008391Y014424D01*
X008391Y013265D01*
X008706Y013265D02*
X008706Y014734D01*
X011095Y015720D02*
X011095Y017470D01*
X008595Y016704D02*
X008469Y017470D01*
X007721Y017470D02*
X007595Y016704D01*
X009345Y012363D02*
X009345Y012048D01*
X007489Y012048D01*
X007489Y011733D02*
X008345Y011733D01*
X008345Y011418D01*
X010869Y011418D01*
X012022Y011418D01*
X012345Y011095D01*
X013470Y011095D01*
X013719Y011344D01*
X013719Y011720D01*
X012971Y011720D02*
X011244Y011720D01*
X010869Y011733D01*
X010869Y012048D02*
X011673Y012048D01*
X011970Y012220D01*
X010869Y012363D02*
X009345Y012363D01*
X008345Y011418D02*
X008345Y011103D01*
X007489Y011103D01*
X008391Y009885D02*
X008391Y009391D01*
X007345Y008595D01*
X008220Y008470D02*
X008706Y008956D01*
X008706Y009885D01*
X009021Y009885D02*
X009021Y008794D01*
X008970Y008470D01*
X009470Y008595D02*
X009336Y008979D01*
X009336Y009885D01*
X009651Y009885D02*
X009651Y009039D01*
X009970Y009470D02*
X009970Y009631D01*
X009966Y009885D01*
X009970Y009470D02*
X010595Y008970D01*
X011720Y009970D02*
X011220Y010470D01*
X010997Y010470D01*
X010869Y010473D01*
X010869Y010788D02*
X011402Y010788D01*
X011845Y010345D01*
X013970Y010345D01*
X014220Y009970D02*
X011720Y009970D01*
X012095Y010720D02*
X011712Y011103D01*
X010869Y011103D01*
X012095Y010720D02*
X013845Y010720D01*
X014470Y011345D01*
X014470Y012095D01*
D35*
X003720Y000220D02*
X003095Y000220D01*
X003095Y000845D01*
X004803Y002208D02*
X004803Y004768D01*
X006583Y004768D02*
X006583Y004833D01*
X007345Y005595D01*
X012845Y005595D01*
X013345Y006095D01*
X014720Y006095D01*
X014845Y005970D01*
X015720Y005970D01*
X016345Y006595D01*
X016220Y005595D02*
X016845Y005595D01*
X017402Y005357D01*
X018220Y004539D01*
X018220Y004220D01*
X017402Y005357D02*
X017402Y007917D01*
X017012Y008897D01*
X015494Y009095D02*
X015494Y008595D01*
X013446Y008595D01*
X012345Y008595D01*
X011845Y008095D01*
X011845Y007220D01*
X010845Y007220D02*
X010969Y008095D01*
X010221Y008095D02*
X009970Y008595D01*
X010221Y008095D02*
X009845Y007220D01*
X008970Y007970D02*
X007720Y007720D01*
X008970Y007970D02*
X008970Y008470D01*
X005845Y008095D02*
X004985Y008455D01*
X004745Y007595D01*
X003945Y007595D02*
X003945Y008974D01*
X004205Y009235D01*
X004720Y010970D01*
X005969Y010970D01*
X006095Y011096D01*
X004720Y010970D02*
X004220Y010970D01*
X003970Y011220D01*
X003970Y012720D01*
X004720Y013470D01*
X005020Y012645D02*
X004720Y012345D01*
X004720Y011970D01*
X005020Y012645D02*
X006220Y012645D01*
X006220Y014545D02*
X004795Y014545D01*
X004720Y014470D01*
X006595Y017095D02*
X006095Y017595D01*
X006095Y018345D01*
X006970Y018220D02*
X007095Y018345D01*
X006970Y018220D02*
X006970Y017345D01*
X005081Y017460D02*
X005095Y018345D01*
X004333Y018773D02*
X003771Y019335D01*
X003771Y021219D01*
X005781Y023229D01*
X006461Y023229D01*
X006470Y023220D01*
X006470Y022220D02*
X007720Y022345D01*
X008720Y022345D02*
X008595Y021810D01*
X008095Y021220D02*
X006470Y021220D01*
X004595Y021220D01*
X004345Y020970D01*
X004345Y019595D01*
X004595Y019345D01*
X005095Y019345D01*
X006095Y019345D01*
X007095Y019345D01*
X008095Y019345D01*
X009095Y019345D01*
X010095Y019345D01*
X011095Y019345D01*
X012095Y019345D01*
X013095Y019345D01*
X014095Y019345D01*
X015095Y019345D01*
X016095Y019345D01*
X016470Y019345D01*
X016720Y019595D01*
X016720Y020970D01*
X017595Y021845D01*
X018970Y021845D01*
X020095Y020845D01*
X022970Y020845D01*
X023720Y021945D01*
X024595Y021794D01*
X025521Y021794D01*
X026345Y020970D01*
X029345Y020970D01*
X029720Y021220D01*
X030470Y021220D01*
X030720Y020970D01*
X031095Y020970D01*
X031470Y021220D01*
X034720Y021220D01*
X034970Y021470D01*
X034970Y021845D01*
X034970Y022845D01*
X035994Y022845D01*
X035994Y022345D02*
X036470Y022345D01*
X036720Y022220D01*
X037470Y022220D01*
X037970Y022470D01*
X038378Y021753D02*
X037595Y021594D01*
X036469Y021845D01*
X035994Y021845D01*
X034970Y021845D01*
X033946Y021845D02*
X033595Y021845D01*
X033470Y021720D01*
X030970Y021720D01*
X031970Y022345D02*
X032095Y022220D01*
X033220Y022220D01*
X033345Y022345D01*
X033946Y022345D01*
X033946Y022845D02*
X032970Y022845D01*
X029720Y022845D01*
X028794Y022169D01*
X028220Y022169D01*
X026896Y022720D01*
X025794Y022720D02*
X025794Y022396D01*
X026720Y021470D01*
X028970Y021470D01*
X030220Y022345D01*
X031970Y022345D01*
X033345Y023470D02*
X033470Y023345D01*
X033946Y023345D01*
X033345Y023470D02*
X029345Y023470D01*
X028220Y023271D01*
X025794Y022720D02*
X025493Y022896D01*
X024595Y022896D01*
X023720Y022745D01*
X022352Y023162D01*
X020549Y023162D01*
X020549Y022359D02*
X018970Y022845D01*
X020549Y022359D02*
X022352Y022359D01*
X022352Y021556D02*
X020549Y021556D01*
X020161Y020126D02*
X022721Y020126D01*
X023701Y020516D01*
X026461Y020126D02*
X029021Y020126D01*
X029551Y019595D01*
X032267Y019595D01*
X033187Y020516D01*
X033937Y020516D01*
X034345Y019345D02*
X033345Y018595D01*
X032470Y018595D01*
X031970Y019095D01*
X028345Y019095D01*
X028220Y018970D01*
X028220Y017970D01*
X028631Y017366D01*
X027720Y016970D02*
X027720Y018220D01*
X026851Y017366D02*
X025871Y016976D01*
X024345Y017312D02*
X024345Y016095D01*
X027220Y016095D01*
X027595Y015845D01*
X027345Y015470D02*
X027095Y015595D01*
X026395Y015595D01*
X025871Y015196D01*
X023311Y015196D01*
X022331Y014806D01*
X021470Y014345D02*
X021470Y015720D01*
X021845Y016095D01*
X024345Y016095D01*
X024345Y017312D02*
X023701Y017956D01*
X022721Y018346D02*
X022331Y017366D01*
X020970Y015970D02*
X018470Y015970D01*
X017595Y016095D02*
X016720Y016095D01*
X017595Y016095D02*
X018345Y016845D01*
X018345Y017119D01*
X019182Y017956D01*
X017402Y017956D02*
X017402Y019533D01*
X017595Y019533D01*
X017402Y019533D02*
X017402Y020516D01*
X016095Y020345D02*
X015221Y020345D01*
X015221Y021220D01*
X015969Y021220D02*
X016470Y022345D01*
X015470Y022345D02*
X014220Y022220D01*
X014220Y021220D02*
X013095Y021220D01*
X012595Y020630D02*
X012595Y020345D01*
X013095Y020345D01*
X014095Y020345D01*
X015095Y020345D01*
X015221Y020345D01*
X012595Y020345D02*
X012095Y020345D01*
X011095Y020345D01*
X010095Y020345D01*
X009095Y020345D01*
X008720Y020345D01*
X008595Y020630D01*
X008720Y020345D02*
X008095Y020345D01*
X007971Y020345D01*
X008095Y020345D02*
X007095Y020345D01*
X006095Y020345D01*
X005095Y020345D01*
X004333Y018773D02*
X004333Y017460D01*
X009220Y021220D02*
X010345Y021220D01*
X012220Y021220D01*
X012595Y021810D02*
X012595Y022345D01*
X011595Y022345D02*
X010345Y022220D01*
X010345Y023220D02*
X009219Y023220D01*
X008471Y023220D02*
X007720Y023220D01*
X004095Y024095D02*
X003095Y024095D01*
X003095Y023095D01*
X011595Y023220D02*
X012346Y023220D01*
X013094Y023220D02*
X014220Y023220D01*
X014095Y017470D02*
X012595Y017470D01*
X012595Y016704D01*
X013595Y016704D02*
X012970Y014845D01*
X013970Y012845D02*
X013970Y011971D01*
X013719Y011720D01*
X015345Y010345D02*
X015494Y010196D01*
X015494Y009095D01*
X015494Y008595D02*
X015494Y008095D01*
X015494Y007595D01*
X017402Y007917D02*
X017417Y007917D01*
X018345Y006970D02*
X018345Y010677D01*
X017012Y010677D01*
X018345Y010677D02*
X018345Y012720D01*
X019488Y012720D01*
X020161Y012047D01*
X022721Y012047D01*
X023701Y011657D01*
X024470Y011970D02*
X025345Y012720D01*
X026220Y012720D01*
X026461Y012479D01*
X026461Y012047D01*
X024720Y013455D02*
X024220Y012970D01*
X022013Y012970D01*
X021095Y013888D01*
X020551Y014806D01*
X021470Y014345D02*
X021989Y013827D01*
X022721Y013827D01*
X024720Y013455D02*
X025481Y014217D01*
X026461Y013827D02*
X027720Y013827D01*
X029021Y013827D01*
X030000Y014217D02*
X030000Y011657D01*
X028631Y011067D01*
X027720Y010720D02*
X027720Y013827D01*
X030000Y014217D02*
X029610Y015196D01*
X030845Y015345D02*
X030845Y013845D01*
X031220Y013470D01*
X030970Y012220D02*
X030970Y011220D01*
X030427Y010677D01*
X029610Y010677D01*
X029153Y010220D01*
X028095Y010220D01*
X027720Y009845D01*
X025345Y009845D01*
X025095Y009595D01*
X025095Y008220D01*
X025398Y007917D01*
X025481Y007917D01*
X025871Y008897D02*
X026371Y009345D01*
X028631Y009345D01*
X028631Y008507D01*
X029610Y008897D02*
X030418Y008897D01*
X030845Y008470D01*
X030845Y007470D01*
X031780Y007917D02*
X032568Y007917D01*
X033547Y008897D01*
X036107Y008897D01*
X037087Y008507D01*
X038345Y007610D01*
X038345Y006970D01*
X038720Y006595D01*
X040237Y006595D01*
X040237Y005357D01*
X041220Y004374D01*
X041220Y003970D01*
X041720Y003470D01*
X043386Y003470D01*
X043386Y003783D01*
X043386Y004768D01*
X043386Y006343D01*
X043386Y006470D01*
X042017Y005357D02*
X042017Y007917D01*
X040237Y007917D02*
X040237Y006595D01*
X039257Y007527D02*
X039847Y008897D01*
X042407Y008897D01*
X043157Y009345D01*
X042720Y009720D02*
X041595Y009720D01*
X042720Y009720D02*
X043386Y010261D01*
X043386Y011067D01*
X042407Y010677D02*
X042017Y011657D01*
X039847Y010677D02*
X039257Y012047D01*
X038867Y011067D02*
X038095Y011839D01*
X038095Y012720D01*
X038095Y015595D01*
X038595Y016095D01*
X040595Y016095D01*
X041095Y016595D01*
X041095Y017097D01*
X040237Y017956D01*
X039756Y018845D02*
X039257Y018346D01*
X039756Y018845D02*
X041127Y018845D01*
X042017Y017956D01*
X042996Y018346D02*
X045556Y018346D01*
X046095Y017807D01*
X046095Y014720D01*
X046470Y014345D01*
X046470Y011595D01*
X045970Y011095D01*
X045970Y007146D01*
X045166Y006343D01*
X045166Y002208D01*
X045166Y003783D01*
X045166Y004768D02*
X045166Y006343D01*
X045166Y008507D02*
X045166Y011067D01*
X044470Y009220D02*
X044220Y008970D01*
X044220Y001345D01*
X039730Y001345D01*
X038867Y002208D01*
X039474Y002970D02*
X039847Y002598D01*
X042407Y002598D01*
X043386Y002208D02*
X043386Y003470D01*
X039847Y004378D02*
X038939Y003470D01*
X039474Y002970D02*
X036480Y002970D01*
X036107Y002598D01*
X033547Y002598D01*
X032170Y002598D01*
X032170Y004378D02*
X029610Y004378D01*
X028095Y003595D02*
X024845Y003595D01*
X024470Y003970D01*
X024470Y006345D01*
X023319Y006345D01*
X022721Y005747D01*
X021845Y005220D02*
X022172Y004768D01*
X022331Y004768D01*
X021845Y005220D02*
X021845Y007895D01*
X022331Y008507D01*
X021845Y009345D02*
X021345Y008845D01*
X021345Y007220D01*
X020970Y006845D01*
X019595Y006845D01*
X019182Y007258D01*
X019182Y007917D01*
X020161Y007527D02*
X020551Y008507D01*
X020551Y008926D01*
X021595Y009970D01*
X022604Y009970D01*
X023311Y010677D01*
X022331Y011067D02*
X020235Y009845D01*
X018845Y009845D01*
X018845Y011320D01*
X019182Y011657D01*
X017402Y011657D02*
X017402Y014217D01*
X012595Y017470D02*
X011095Y017470D01*
X025871Y010677D02*
X026013Y010677D01*
X026345Y010345D01*
X027345Y010345D01*
X027720Y010720D01*
X029006Y009720D02*
X030970Y009720D01*
X029006Y009720D02*
X028631Y009345D01*
X031780Y007917D02*
X031780Y005357D01*
X032845Y005720D02*
X033208Y005357D01*
X033937Y005357D01*
X033547Y004378D02*
X036107Y004378D01*
X037087Y004768D01*
X037595Y005276D01*
X037595Y006777D01*
X036697Y007527D01*
X035717Y007917D02*
X035717Y006845D01*
X033345Y006845D01*
X032845Y007345D01*
X035717Y006845D02*
X035717Y005357D01*
X037087Y002208D02*
X037087Y002200D01*
X036732Y001845D01*
X046345Y000220D02*
X047095Y000220D01*
X047095Y000970D01*
X034845Y010749D02*
X033937Y011657D01*
X035717Y011657D02*
X036697Y012047D01*
X035717Y014217D02*
X036107Y015196D01*
X034845Y015196D01*
X034845Y017208D01*
X035717Y017956D01*
X036697Y018346D01*
X037970Y017845D02*
X037970Y016720D01*
X038095Y016595D01*
X039465Y016595D01*
X039847Y016976D01*
X037087Y017366D02*
X036107Y016976D01*
X037087Y017366D02*
X037087Y014806D01*
X038867Y014806D02*
X039847Y015196D01*
X042407Y015196D01*
X042996Y013827D01*
X043845Y014222D02*
X043845Y012970D01*
X041720Y012970D01*
X043845Y014222D02*
X043386Y014806D01*
X043386Y017366D01*
X045166Y017366D02*
X045166Y014806D01*
X045556Y018345D02*
X045556Y018346D01*
X045556Y020126D02*
X042996Y020126D01*
X042845Y020970D02*
X043286Y020970D01*
X043503Y021187D01*
X044220Y020970D01*
X043503Y021187D02*
X044146Y021830D01*
X044146Y022720D01*
X044146Y023169D01*
X043845Y023470D01*
X042095Y023470D01*
X041836Y023211D01*
X041836Y022720D01*
X043044Y022720D02*
X042937Y021753D01*
X038970Y021753D01*
X038378Y021753D01*
X038970Y021753D02*
X038970Y022470D01*
X039854Y023220D02*
X040104Y022720D01*
X039854Y023220D02*
X037345Y023220D01*
X036970Y022845D01*
X036470Y023345D01*
X035994Y023345D01*
X036595Y021095D02*
X037595Y020846D01*
X038596Y020970D01*
X039344Y020970D02*
X039344Y021094D01*
X039720Y021220D01*
X042595Y021220D01*
X042845Y020970D01*
X046220Y020970D02*
X046220Y022095D01*
X047095Y023220D02*
X047095Y024095D01*
X046095Y024095D01*
X039257Y020126D02*
X036697Y020126D01*
X033547Y016976D02*
X032568Y017956D01*
X031780Y017956D01*
X032170Y016976D02*
X032845Y016301D01*
X032845Y016095D01*
X033547Y015196D02*
X034845Y015196D01*
X023311Y008897D02*
X022863Y009345D01*
X021845Y009345D01*
X018970Y006345D02*
X018345Y006970D01*
X018970Y006345D02*
X019595Y006345D01*
X019911Y006029D01*
X020161Y005747D01*
X020551Y004768D02*
X020551Y004176D01*
X022311Y003345D02*
X023311Y004378D01*
X025871Y004378D02*
X026851Y004768D01*
X026461Y005747D02*
X025863Y006345D01*
X024470Y006345D01*
X023311Y002598D02*
X025871Y002598D01*
X019572Y002598D02*
X017012Y002598D01*
X016032Y002208D01*
X016032Y003095D01*
X013710Y005595D02*
X012883Y004768D01*
X013710Y005595D02*
X014595Y005595D01*
X014720Y005470D01*
X016095Y005470D01*
X016220Y005595D01*
X013446Y009095D02*
X012845Y009095D01*
X012470Y009345D01*
X006595Y005845D02*
X004595Y005845D01*
X003945Y006495D01*
X003945Y007595D01*
X006583Y004768D02*
X006583Y002208D01*
D36*
X005345Y001470D02*
X004803Y002012D01*
X004803Y002208D01*
X005345Y001470D02*
X011845Y001470D01*
X011970Y001595D01*
X011970Y002595D01*
X012345Y002970D01*
X014720Y002970D01*
X014970Y002720D01*
X014970Y001720D01*
X015470Y001220D01*
X023095Y001220D01*
X023345Y001470D01*
X029970Y001470D01*
X030970Y002470D01*
X030970Y002970D01*
X031345Y003345D01*
X038814Y003345D01*
X038939Y003470D01*
X038095Y003720D02*
X028881Y003720D01*
X028631Y003970D01*
X028631Y004768D01*
X028547Y004768D01*
X028095Y005220D01*
X028095Y006095D01*
X028470Y006470D01*
X029845Y006470D01*
X030845Y007470D01*
X030000Y007250D02*
X030000Y007917D01*
X030000Y007250D02*
X029595Y006845D01*
X024970Y006845D01*
X024595Y007220D01*
X024595Y009845D01*
X024970Y010220D01*
X024970Y011145D01*
X025481Y011657D01*
X024470Y011970D02*
X024470Y010345D01*
X024095Y009970D01*
X024095Y008311D01*
X023701Y007917D01*
X020551Y004176D02*
X020095Y003720D01*
X018720Y003720D01*
X018220Y004220D01*
X016595Y003345D02*
X022311Y003345D01*
X023311Y002598D02*
X023311Y001936D01*
X022970Y001595D01*
X015595Y001595D01*
X015345Y001845D01*
X015345Y002970D01*
X014970Y003345D01*
X010220Y003345D01*
X009733Y002858D01*
X009733Y002208D01*
X007631Y003720D02*
X006583Y004768D01*
X007953Y004768D02*
X008626Y004095D01*
X015845Y004095D01*
X016595Y003345D01*
X016032Y003095D02*
X015532Y003720D01*
X007631Y003720D01*
X009345Y006095D02*
X008845Y006595D01*
X008845Y007220D01*
X009470Y007845D01*
X009470Y008595D01*
X009651Y009039D02*
X009970Y008595D01*
X010281Y009885D02*
X010970Y009720D01*
X012845Y008095D02*
X012595Y007845D01*
X012595Y006845D01*
X012220Y006470D01*
X009970Y006470D01*
X009845Y006595D01*
X009845Y007220D01*
X009345Y006095D02*
X012595Y006095D01*
X013446Y007196D01*
X013446Y007595D01*
X013446Y008095D02*
X012845Y008095D01*
X014220Y009970D02*
X015345Y011095D01*
X015345Y011720D01*
X016095Y012470D01*
X016095Y018345D01*
X017595Y019533D02*
X023345Y019533D01*
X023595Y019720D01*
X026055Y019720D01*
X026461Y020126D01*
X027845Y019345D02*
X023970Y019345D01*
X023783Y019220D01*
X021033Y019220D01*
X020970Y019095D01*
X019470Y019095D01*
X019220Y018845D01*
X019220Y017994D01*
X019182Y017956D01*
X019572Y016976D02*
X019953Y016595D01*
X020970Y016595D01*
X021345Y016970D01*
X021345Y018595D01*
X021595Y018908D01*
X023970Y018908D01*
X024095Y018970D01*
X026970Y018970D01*
X027720Y018220D01*
X028220Y018970D02*
X027845Y019345D01*
X031095Y017720D02*
X031345Y017970D01*
X031359Y017956D01*
X031780Y017956D01*
X031095Y017720D02*
X031095Y016970D01*
X030345Y016220D01*
X027845Y016220D01*
X026851Y017214D01*
X026851Y017366D01*
X027720Y016970D02*
X028095Y016595D01*
X029229Y016595D01*
X029610Y016976D01*
X030345Y015845D02*
X027595Y015845D01*
X027345Y015470D02*
X029336Y015470D01*
X029610Y015196D01*
X030345Y015845D02*
X030845Y015345D01*
X031220Y013470D02*
X036095Y013470D01*
X036697Y013827D01*
X037220Y013095D02*
X037595Y013470D01*
X037595Y014298D01*
X037087Y014806D01*
X037220Y013095D02*
X036220Y013095D01*
X035845Y012970D01*
X031720Y012970D01*
X030970Y012220D01*
X031780Y011657D02*
X031907Y011657D01*
X032720Y012470D01*
X035845Y012470D01*
X036345Y012720D01*
X038095Y012720D01*
X041095Y012345D02*
X041720Y012970D01*
X041095Y012345D02*
X041095Y010720D01*
X040345Y009970D01*
X035624Y009970D01*
X034845Y010749D01*
X033970Y009720D02*
X030970Y009720D01*
X033970Y009720D02*
X034095Y009595D01*
X040595Y009595D01*
X040720Y009720D01*
X041595Y009720D01*
X043157Y009345D02*
X044095Y010284D01*
X044095Y011595D01*
X043644Y012047D01*
X042996Y012047D01*
X044470Y014095D02*
X045166Y014791D01*
X045166Y014806D01*
X044470Y014095D02*
X044470Y009220D01*
X038867Y004768D02*
X038867Y004492D01*
X038095Y003720D01*
X036732Y001845D02*
X031345Y001845D01*
X030595Y001095D01*
X023595Y001095D01*
X023345Y000845D01*
X015095Y000845D01*
X014252Y001688D01*
X014252Y002208D01*
X016345Y006595D02*
X016345Y011220D01*
X016720Y011595D01*
X016720Y014345D01*
X016470Y014595D01*
X016470Y015845D01*
X016720Y016095D01*
X017970Y015470D02*
X018470Y015970D01*
X017970Y015470D02*
X017970Y014785D01*
X017402Y014217D01*
X018345Y014571D02*
X018970Y015196D01*
X019572Y015196D01*
X018345Y014571D02*
X018345Y012720D01*
X015595Y012720D02*
X015595Y015220D01*
X015220Y015095D02*
X015220Y012970D01*
X014470Y012095D01*
X014845Y011845D02*
X015595Y012720D01*
X014845Y011845D02*
X014845Y011220D01*
X013970Y010345D01*
X011363Y012363D02*
X010869Y012363D01*
X010869Y012678D02*
X010869Y013744D01*
X011220Y014095D01*
X012720Y014095D01*
X012970Y013845D01*
X011498Y013235D02*
X011470Y012595D01*
X011363Y012363D01*
X010281Y013265D02*
X010281Y014156D01*
X010970Y014845D01*
X012970Y014845D01*
X007489Y013826D02*
X007489Y012678D01*
X007489Y012363D02*
X006752Y012363D01*
X006220Y012645D01*
X006845Y012048D02*
X006845Y011844D01*
X006845Y011418D01*
X007489Y011418D01*
X006845Y011844D02*
X006095Y011844D01*
X006845Y012048D02*
X007489Y012048D01*
X007489Y011103D02*
X006102Y011103D01*
X006095Y011096D01*
X006788Y010788D02*
X006095Y010095D01*
X005220Y010095D01*
X005720Y009220D02*
X006973Y010473D01*
X007489Y010473D01*
X007489Y010788D02*
X006788Y010788D01*
X008036Y009845D02*
X008076Y009885D01*
X008036Y009845D02*
X007345Y009845D01*
X007489Y013826D02*
X006770Y014545D01*
X006220Y014545D01*
X008095Y021220D02*
X009220Y021220D01*
X012220Y021220D02*
X013095Y021220D01*
X020970Y015970D02*
X021595Y016595D01*
X022930Y016595D01*
X023311Y016976D01*
X033220Y019470D02*
X033470Y019720D01*
X036095Y019720D01*
X036501Y020126D01*
X036697Y020126D01*
X037345Y018970D02*
X034952Y018970D01*
X033937Y017956D01*
X034345Y019345D02*
X042215Y019345D01*
X042996Y020126D01*
X037970Y018345D02*
X037970Y017845D01*
X037970Y018345D02*
X037345Y018970D01*
X028095Y003595D02*
X028595Y003095D01*
X029113Y003095D01*
X029610Y002598D01*
X028631Y002208D02*
X027743Y003095D01*
X026368Y003095D01*
X025871Y002598D01*
D37*
X032845Y001220D03*
X032845Y005720D03*
X032845Y007345D03*
X032845Y016095D03*
X033220Y019470D03*
X036595Y021095D03*
X030970Y021720D03*
X046220Y022095D03*
X015345Y010345D03*
X012470Y009345D03*
X010970Y009720D03*
X010595Y008970D03*
X008220Y008470D03*
X007345Y008595D03*
X007720Y007720D03*
X005845Y008095D03*
X007345Y009845D03*
X005220Y010095D03*
X011970Y012220D03*
X011220Y014095D03*
X011595Y023220D03*
X007720Y023220D03*
D38*
X003720Y023470D03*
X003720Y000845D03*
X046470Y000845D03*
X046470Y023470D03*
M02*
